M48
; DRILL file {KiCad 5.1.6+dfsg1-1} date Sun Jan  3 21:19:10 2021
; FORMAT={-:-/ absolute / inch / decimal}
; #@! TF.CreationDate,2021-01-03T21:19:10-08:00
; #@! TF.GenerationSoftware,Kicad,Pcbnew,5.1.6+dfsg1-1
; #@! TF.FileFunction,Plated,1,2,PTH
FMAT,2
INCH
T1C0.0157
T2C0.0315
T3C0.0394
T4C0.0866
T5C0.1260
%
G90
G05
T1
X5.3Y-2.1
X5.3Y-3.7
X5.5049Y-2.5951
X6.9951Y-2.5951
X7.0Y-2.1
X7.1Y-3.7
X7.135Y-3.61
X7.1541Y-3.5641
X7.1541Y-3.6559
X7.2Y-3.545
X7.2Y-3.675
X7.2459Y-3.5641
X7.2459Y-3.6559
X7.265Y-3.61
X7.125Y-2.0
X7.1441Y-1.9541
X7.1441Y-2.0459
X7.19Y-1.935
X7.19Y-2.065
X7.2359Y-1.9541
X7.2359Y-2.0459
X7.255Y-2.0
X5.1091Y-2.0059
X5.1281Y-1.96
X5.1281Y-2.0519
X5.1741Y-1.941
X5.1741Y-2.0709
X5.22Y-1.96
X5.22Y-2.0519
X5.239Y-2.0059
X5.125Y-3.62
X5.1441Y-3.5741
X5.1441Y-3.6659
X5.19Y-3.555
X5.19Y-3.685
X5.2359Y-3.5741
X5.2359Y-3.6659
X5.255Y-3.62
T2
X5.9Y-2.7
X6.2Y-2.7
X6.3Y-2.2
X6.6Y-2.2
X5.9Y-3.45
X6.2Y-3.45
X5.9Y-2.45
X6.2Y-2.45
X5.9Y-2.2
X6.2Y-2.2
X5.9Y-2.95
X6.2Y-2.95
X5.9Y-3.2
X6.2Y-3.2
X6.7Y-2.45
X7.0Y-2.45
X5.7Y-2.7
X5.7Y-3.0
X6.7Y-2.2
X7.0Y-2.2
X6.3Y-3.2
X6.6Y-3.2
X6.7Y-3.2
X7.0Y-3.2
X5.7Y-2.15
X5.7Y-2.45
X6.3Y-2.95
X6.6Y-2.95
X5.7Y-3.2
X5.7Y-3.5
X6.3Y-2.7
X6.6Y-2.7
X6.3Y-2.45
X6.6Y-2.45
X6.7Y-3.45
X7.0Y-3.45
X6.3Y-3.45
X6.6Y-3.45
X6.7Y-2.7
X7.0Y-2.7
X6.7Y-2.95
X7.0Y-2.95
T3
X5.2441Y-2.6394
X5.2441Y-2.7295
X5.2441Y-2.8197
X5.2441Y-2.9098
X5.2441Y-3.0
X5.322Y-2.6844
X5.322Y-2.7746
X5.322Y-2.8648
X5.322Y-2.9549
X5.322Y-3.0451
X5.4Y-2.6394
X5.4Y-2.7295
X5.4Y-2.8197
X5.4Y-2.9098
X5.4Y-3.0
X7.2Y-2.4
X7.2Y-2.5
X7.2Y-2.6
X7.2Y-2.7
X7.2Y-2.8
X7.2Y-2.9
X7.2Y-3.0
X7.2Y-3.1
X7.2Y-3.2
X7.2Y-3.3
T4
X5.1741Y-2.0059
X5.19Y-3.62
X7.2Y-3.61
X7.19Y-2.0
T5
X5.3441Y-2.338
X5.3441Y-3.3222
T0
M30
