%TF.GenerationSoftware,KiCad,Pcbnew,5.1.6+dfsg1-1*%
%TF.CreationDate,2021-01-03T21:19:59-08:00*%
%TF.ProjectId,KiCAD-VGA,4b694341-442d-4564-9741-2e6b69636164,rev?*%
%TF.SameCoordinates,Original*%
%TF.FileFunction,Copper,L2,Bot*%
%TF.FilePolarity,Positive*%
%FSLAX46Y46*%
G04 Gerber Fmt 4.6, Leading zero omitted, Abs format (unit mm)*
G04 Created by KiCad (PCBNEW 5.1.6+dfsg1-1) date 2021-01-03 21:19:59*
%MOMM*%
%LPD*%
G01*
G04 APERTURE LIST*
%TA.AperFunction,ComponentPad*%
%ADD10C,4.000000*%
%TD*%
%TA.AperFunction,ComponentPad*%
%ADD11C,1.600000*%
%TD*%
%TA.AperFunction,ComponentPad*%
%ADD12R,1.600000X1.600000*%
%TD*%
%TA.AperFunction,ComponentPad*%
%ADD13C,4.400000*%
%TD*%
%TA.AperFunction,ComponentPad*%
%ADD14C,0.700000*%
%TD*%
%TA.AperFunction,ComponentPad*%
%ADD15O,1.600000X1.600000*%
%TD*%
%TA.AperFunction,ComponentPad*%
%ADD16O,1.700000X1.700000*%
%TD*%
%TA.AperFunction,ComponentPad*%
%ADD17R,1.700000X1.700000*%
%TD*%
%TA.AperFunction,ViaPad*%
%ADD18C,0.800000*%
%TD*%
%TA.AperFunction,Conductor*%
%ADD19C,0.250000*%
%TD*%
%TA.AperFunction,Conductor*%
%ADD20C,0.254000*%
%TD*%
G04 APERTURE END LIST*
D10*
%TO.P,J2,0*%
%TO.N,GNDREF*%
X135740000Y-84385000D03*
X135740000Y-59385000D03*
D11*
%TO.P,J2,15*%
%TO.N,N/C*%
X133200000Y-67040000D03*
%TO.P,J2,14*%
%TO.N,/VSync*%
X133200000Y-69330000D03*
%TO.P,J2,13*%
%TO.N,/HSync*%
X133200000Y-71620000D03*
%TO.P,J2,12*%
%TO.N,N/C*%
X133200000Y-73910000D03*
%TO.P,J2,11*%
X133200000Y-76200000D03*
%TO.P,J2,10*%
%TO.N,GNDREF*%
X135180000Y-68185000D03*
%TO.P,J2,9*%
%TO.N,N/C*%
X135180000Y-70475000D03*
%TO.P,J2,8*%
%TO.N,GNDREF*%
X135180000Y-72765000D03*
%TO.P,J2,7*%
X135180000Y-75055000D03*
%TO.P,J2,6*%
X135180000Y-77345000D03*
%TO.P,J2,5*%
X137160000Y-67040000D03*
%TO.P,J2,4*%
%TO.N,N/C*%
X137160000Y-69330000D03*
%TO.P,J2,3*%
%TO.N,Net-(J2-Pad3)*%
X137160000Y-71620000D03*
%TO.P,J2,2*%
%TO.N,Net-(J2-Pad2)*%
X137160000Y-73910000D03*
D12*
%TO.P,J2,1*%
%TO.N,Net-(J2-Pad1)*%
X137160000Y-76200000D03*
%TD*%
D13*
%TO.P,H4,1*%
%TO.N,N/C*%
X182880000Y-91694000D03*
D14*
X184530000Y-91694000D03*
X184046726Y-92860726D03*
X182880000Y-93344000D03*
X181713274Y-92860726D03*
X181230000Y-91694000D03*
X181713274Y-90527274D03*
X182880000Y-90044000D03*
X184046726Y-90527274D03*
%TD*%
%TO.P,H3,1*%
%TO.N,N/C*%
X183792726Y-49633274D03*
X182626000Y-49150000D03*
X181459274Y-49633274D03*
X180976000Y-50800000D03*
X181459274Y-51966726D03*
X182626000Y-52450000D03*
X183792726Y-51966726D03*
X184276000Y-50800000D03*
D13*
X182626000Y-50800000D03*
%TD*%
D14*
%TO.P,H2,1*%
%TO.N,N/C*%
X132992726Y-90781274D03*
X131826000Y-90298000D03*
X130659274Y-90781274D03*
X130176000Y-91948000D03*
X130659274Y-93114726D03*
X131826000Y-93598000D03*
X132992726Y-93114726D03*
X133476000Y-91948000D03*
D13*
X131826000Y-91948000D03*
%TD*%
D14*
%TO.P,H1,1*%
%TO.N,N/C*%
X132588000Y-49784000D03*
X131421274Y-49300726D03*
X130254548Y-49784000D03*
X129771274Y-50950726D03*
X130254548Y-52117452D03*
X131421274Y-52600726D03*
X132588000Y-52117452D03*
X133071274Y-50950726D03*
D13*
X131421274Y-50950726D03*
%TD*%
D15*
%TO.P,R21,2*%
%TO.N,GNDREF*%
X157480000Y-55880000D03*
D11*
%TO.P,R21,1*%
%TO.N,Net-(R20-Pad2)*%
X149860000Y-55880000D03*
%TD*%
D15*
%TO.P,R20,2*%
%TO.N,Net-(R20-Pad2)*%
X144780000Y-54610000D03*
D11*
%TO.P,R20,1*%
%TO.N,Net-(J2-Pad3)*%
X144780000Y-62230000D03*
%TD*%
D15*
%TO.P,R19,2*%
%TO.N,GNDREF*%
X157480000Y-68580000D03*
D11*
%TO.P,R19,1*%
%TO.N,Net-(R18-Pad2)*%
X149860000Y-68580000D03*
%TD*%
D15*
%TO.P,R18,2*%
%TO.N,Net-(R18-Pad2)*%
X144780000Y-68580000D03*
D11*
%TO.P,R18,1*%
%TO.N,Net-(J2-Pad2)*%
X144780000Y-76200000D03*
%TD*%
D15*
%TO.P,R17,2*%
%TO.N,GNDREF*%
X157480000Y-81280000D03*
D11*
%TO.P,R17,1*%
%TO.N,Net-(R16-Pad2)*%
X149860000Y-81280000D03*
%TD*%
D15*
%TO.P,R16,2*%
%TO.N,Net-(R16-Pad2)*%
X144780000Y-81280000D03*
D11*
%TO.P,R16,1*%
%TO.N,Net-(J2-Pad1)*%
X144780000Y-88900000D03*
%TD*%
D15*
%TO.P,R15,2*%
%TO.N,Net-(J2-Pad3)*%
X160020000Y-55880000D03*
D11*
%TO.P,R15,1*%
%TO.N,Net-(R15-Pad1)*%
X167640000Y-55880000D03*
%TD*%
D15*
%TO.P,R14,2*%
%TO.N,Net-(J2-Pad3)*%
X149860000Y-62230000D03*
D11*
%TO.P,R14,1*%
%TO.N,Net-(R14-Pad1)*%
X157480000Y-62230000D03*
%TD*%
D15*
%TO.P,R13,2*%
%TO.N,Net-(J2-Pad2)*%
X160020000Y-68580000D03*
D11*
%TO.P,R13,1*%
%TO.N,Net-(R13-Pad1)*%
X167640000Y-68580000D03*
%TD*%
D15*
%TO.P,R12,2*%
%TO.N,Net-(J2-Pad2)*%
X149860000Y-74930000D03*
D11*
%TO.P,R12,1*%
%TO.N,Net-(R12-Pad1)*%
X157480000Y-74930000D03*
%TD*%
D15*
%TO.P,R11,2*%
%TO.N,Net-(J2-Pad1)*%
X160020000Y-81280000D03*
D11*
%TO.P,R11,1*%
%TO.N,Net-(R11-Pad1)*%
X167640000Y-81280000D03*
%TD*%
D15*
%TO.P,R10,2*%
%TO.N,Net-(J2-Pad1)*%
X149860000Y-87630000D03*
D11*
%TO.P,R10,1*%
%TO.N,Net-(R10-Pad1)*%
X157480000Y-87630000D03*
%TD*%
D15*
%TO.P,R9,2*%
%TO.N,Net-(R14-Pad1)*%
X160020000Y-62230000D03*
D11*
%TO.P,R9,1*%
%TO.N,Net-(R5-Pad2)*%
X167640000Y-62230000D03*
%TD*%
D15*
%TO.P,R8,2*%
%TO.N,Net-(R12-Pad1)*%
X160020000Y-74930000D03*
D11*
%TO.P,R8,1*%
%TO.N,Net-(R3-Pad2)*%
X167640000Y-74930000D03*
%TD*%
D15*
%TO.P,R7,2*%
%TO.N,Net-(R10-Pad1)*%
X160020000Y-87630000D03*
D11*
%TO.P,R7,1*%
%TO.N,Net-(R1-Pad2)*%
X167640000Y-87630000D03*
%TD*%
D15*
%TO.P,R6,2*%
%TO.N,Net-(R15-Pad1)*%
X170180000Y-55880000D03*
D11*
%TO.P,R6,1*%
%TO.N,/B1*%
X177800000Y-55880000D03*
%TD*%
D15*
%TO.P,R5,2*%
%TO.N,Net-(R5-Pad2)*%
X170180000Y-62230000D03*
D11*
%TO.P,R5,1*%
%TO.N,/B0*%
X177800000Y-62230000D03*
%TD*%
D15*
%TO.P,R4,2*%
%TO.N,Net-(R13-Pad1)*%
X170180000Y-68580000D03*
D11*
%TO.P,R4,1*%
%TO.N,/G1*%
X177800000Y-68580000D03*
%TD*%
D15*
%TO.P,R3,2*%
%TO.N,Net-(R3-Pad2)*%
X170180000Y-74930000D03*
D11*
%TO.P,R3,1*%
%TO.N,/G0*%
X177800000Y-74930000D03*
%TD*%
D15*
%TO.P,R2,2*%
%TO.N,Net-(R11-Pad1)*%
X170180000Y-81280000D03*
D11*
%TO.P,R2,1*%
%TO.N,/R1*%
X177800000Y-81280000D03*
%TD*%
D15*
%TO.P,R1,2*%
%TO.N,Net-(R1-Pad2)*%
X170180000Y-87630000D03*
D11*
%TO.P,R1,1*%
%TO.N,/R0*%
X177800000Y-87630000D03*
%TD*%
D16*
%TO.P,J1,10*%
%TO.N,N/C*%
X182880000Y-83820000D03*
%TO.P,J1,9*%
%TO.N,GNDREF*%
X182880000Y-81280000D03*
%TO.P,J1,8*%
%TO.N,/VSync*%
X182880000Y-78740000D03*
%TO.P,J1,7*%
%TO.N,/HSync*%
X182880000Y-76200000D03*
%TO.P,J1,6*%
%TO.N,/R0*%
X182880000Y-73660000D03*
%TO.P,J1,5*%
%TO.N,/R1*%
X182880000Y-71120000D03*
%TO.P,J1,4*%
%TO.N,/G0*%
X182880000Y-68580000D03*
%TO.P,J1,3*%
%TO.N,/G1*%
X182880000Y-66040000D03*
%TO.P,J1,2*%
%TO.N,/B0*%
X182880000Y-63500000D03*
D17*
%TO.P,J1,1*%
%TO.N,/B1*%
X182880000Y-60960000D03*
%TD*%
D18*
%TO.N,GNDREF*%
X180340000Y-93980000D03*
X134620000Y-93980000D03*
X134620000Y-53340000D03*
X177800000Y-53340000D03*
%TO.N,/VSync*%
X139825001Y-65914999D03*
X177674999Y-65914999D03*
%TD*%
D19*
%TO.N,GNDREF*%
X136325000Y-67040000D02*
X135180000Y-68185000D01*
X137160000Y-67040000D02*
X136325000Y-67040000D01*
X135180000Y-72765000D02*
X135180000Y-75055000D01*
X135180000Y-75055000D02*
X135180000Y-77345000D01*
%TO.N,/VSync*%
X132659999Y-65914999D02*
X139825001Y-65914999D01*
X132074999Y-66499999D02*
X132659999Y-65914999D01*
X132074999Y-68204999D02*
X132074999Y-66499999D01*
X133200000Y-69330000D02*
X132074999Y-68204999D01*
X139825001Y-65914999D02*
X139825001Y-65914999D01*
X184505010Y-77114990D02*
X182880000Y-78740000D01*
X183444001Y-64864999D02*
X184505010Y-65926008D01*
X184505010Y-65926008D02*
X184505010Y-77114990D01*
X178724999Y-64864999D02*
X183444001Y-64864999D01*
X177674999Y-65914999D02*
X178724999Y-64864999D01*
%TO.N,/HSync*%
X137662769Y-60912229D02*
X135074998Y-63500000D01*
X149409991Y-60912229D02*
X137662769Y-60912229D01*
X156017231Y-54304989D02*
X149409991Y-60912229D01*
X160109991Y-54304989D02*
X156017231Y-54304989D01*
X183444001Y-69944999D02*
X183254003Y-69944999D01*
X182880000Y-76200000D02*
X184055001Y-75024999D01*
X183254003Y-69944999D02*
X184055001Y-69144001D01*
X184055001Y-75024999D02*
X184055001Y-70555999D01*
X184055001Y-70555999D02*
X183444001Y-69944999D01*
X184055001Y-69144001D02*
X184055001Y-68015999D01*
X184055001Y-68015999D02*
X183444001Y-67404999D01*
X183444001Y-67404999D02*
X182315999Y-67404999D01*
X182315999Y-67404999D02*
X179775999Y-69944999D01*
X179775999Y-69944999D02*
X173499999Y-69944999D01*
X173499999Y-69944999D02*
X161145001Y-57590001D01*
X161145001Y-57590001D02*
X161145001Y-55339999D01*
X161145001Y-55339999D02*
X160109991Y-54304989D01*
X135074998Y-63500000D02*
X129540000Y-63500000D01*
X129540000Y-63500000D02*
X129540000Y-71120000D01*
X132700000Y-71120000D02*
X133200000Y-71620000D01*
X129540000Y-71120000D02*
X132700000Y-71120000D01*
%TO.N,/R0*%
X181704999Y-74835001D02*
X182880000Y-73660000D01*
X181704999Y-79278591D02*
X181704999Y-74835001D01*
X177800000Y-83183590D02*
X181704999Y-79278591D01*
X177800000Y-87630000D02*
X177800000Y-83183590D01*
%TO.N,/R1*%
X178925001Y-80154999D02*
X177800000Y-81280000D01*
X178925001Y-75074999D02*
X178925001Y-80154999D01*
X182880000Y-71120000D02*
X178925001Y-75074999D01*
%TO.N,/G0*%
X177800000Y-73660000D02*
X177800000Y-74930000D01*
X182880000Y-68580000D02*
X177800000Y-73660000D01*
%TO.N,/G1*%
X180340000Y-66040000D02*
X177800000Y-68580000D01*
X182880000Y-66040000D02*
X180340000Y-66040000D01*
%TO.N,/B0*%
X179070000Y-63500000D02*
X177800000Y-62230000D01*
X182880000Y-63500000D02*
X179070000Y-63500000D01*
%TO.N,/B1*%
X182880000Y-60960000D02*
X177800000Y-55880000D01*
%TO.N,Net-(J2-Pad3)*%
X149860000Y-62230000D02*
X144780000Y-62230000D01*
X149860000Y-61098630D02*
X149860000Y-62230000D01*
X156203631Y-54754999D02*
X149860000Y-61098630D01*
X158894999Y-54754999D02*
X156203631Y-54754999D01*
X160020000Y-55880000D02*
X158894999Y-54754999D01*
X144780000Y-64000000D02*
X137160000Y-71620000D01*
X144780000Y-62230000D02*
X144780000Y-64000000D01*
%TO.N,Net-(J2-Pad2)*%
X146050000Y-74930000D02*
X144780000Y-76200000D01*
X149860000Y-74930000D02*
X146050000Y-74930000D01*
X139450000Y-76200000D02*
X137160000Y-73910000D01*
X144780000Y-76200000D02*
X139450000Y-76200000D01*
X153670000Y-74930000D02*
X160020000Y-68580000D01*
X149860000Y-74930000D02*
X153670000Y-74930000D01*
%TO.N,Net-(J2-Pad1)*%
X146050000Y-87630000D02*
X144780000Y-88900000D01*
X149860000Y-87630000D02*
X146050000Y-87630000D01*
X153670000Y-87630000D02*
X160020000Y-81280000D01*
X149860000Y-87630000D02*
X153670000Y-87630000D01*
X144780000Y-83820000D02*
X137160000Y-76200000D01*
X144780000Y-88900000D02*
X144780000Y-83820000D01*
%TO.N,Net-(R1-Pad2)*%
X170180000Y-87630000D02*
X167640000Y-87630000D01*
%TO.N,Net-(R11-Pad1)*%
X170180000Y-81280000D02*
X167640000Y-81280000D01*
%TO.N,Net-(R3-Pad2)*%
X170180000Y-74930000D02*
X167640000Y-74930000D01*
%TO.N,Net-(R13-Pad1)*%
X170180000Y-68580000D02*
X167640000Y-68580000D01*
%TO.N,Net-(R5-Pad2)*%
X170180000Y-62230000D02*
X167640000Y-62230000D01*
%TO.N,Net-(R15-Pad1)*%
X170180000Y-55880000D02*
X167640000Y-55880000D01*
%TO.N,Net-(R10-Pad1)*%
X160020000Y-87630000D02*
X157480000Y-87630000D01*
%TO.N,Net-(R12-Pad1)*%
X160020000Y-74930000D02*
X157480000Y-74930000D01*
%TO.N,Net-(R14-Pad1)*%
X160020000Y-62230000D02*
X157480000Y-62230000D01*
%TO.N,Net-(R16-Pad2)*%
X149860000Y-81280000D02*
X144780000Y-81280000D01*
%TO.N,Net-(R18-Pad2)*%
X149860000Y-68580000D02*
X144780000Y-68580000D01*
%TO.N,Net-(R20-Pad2)*%
X146050000Y-55880000D02*
X144780000Y-54610000D01*
X149860000Y-55880000D02*
X146050000Y-55880000D01*
%TD*%
D20*
%TO.N,GNDREF*%
G36*
X187300001Y-95860000D02*
G01*
X125120000Y-95860000D01*
X125120000Y-91668777D01*
X128991000Y-91668777D01*
X128991000Y-92227223D01*
X129099948Y-92774939D01*
X129313656Y-93290876D01*
X129623912Y-93755207D01*
X130018793Y-94150088D01*
X130483124Y-94460344D01*
X130999061Y-94674052D01*
X131546777Y-94783000D01*
X132105223Y-94783000D01*
X132652939Y-94674052D01*
X133168876Y-94460344D01*
X133633207Y-94150088D01*
X134028088Y-93755207D01*
X134338344Y-93290876D01*
X134552052Y-92774939D01*
X134661000Y-92227223D01*
X134661000Y-91668777D01*
X134610477Y-91414777D01*
X180045000Y-91414777D01*
X180045000Y-91973223D01*
X180153948Y-92520939D01*
X180367656Y-93036876D01*
X180677912Y-93501207D01*
X181072793Y-93896088D01*
X181537124Y-94206344D01*
X182053061Y-94420052D01*
X182600777Y-94529000D01*
X183159223Y-94529000D01*
X183706939Y-94420052D01*
X184222876Y-94206344D01*
X184687207Y-93896088D01*
X185082088Y-93501207D01*
X185392344Y-93036876D01*
X185606052Y-92520939D01*
X185715000Y-91973223D01*
X185715000Y-91414777D01*
X185606052Y-90867061D01*
X185392344Y-90351124D01*
X185082088Y-89886793D01*
X184687207Y-89491912D01*
X184222876Y-89181656D01*
X183706939Y-88967948D01*
X183159223Y-88859000D01*
X182600777Y-88859000D01*
X182053061Y-88967948D01*
X181537124Y-89181656D01*
X181072793Y-89491912D01*
X180677912Y-89886793D01*
X180367656Y-90351124D01*
X180153948Y-90867061D01*
X180045000Y-91414777D01*
X134610477Y-91414777D01*
X134552052Y-91121061D01*
X134338344Y-90605124D01*
X134028088Y-90140793D01*
X133633207Y-89745912D01*
X133168876Y-89435656D01*
X132652939Y-89221948D01*
X132105223Y-89113000D01*
X131546777Y-89113000D01*
X130999061Y-89221948D01*
X130483124Y-89435656D01*
X130018793Y-89745912D01*
X129623912Y-90140793D01*
X129313656Y-90605124D01*
X129099948Y-91121061D01*
X128991000Y-91668777D01*
X125120000Y-91668777D01*
X125120000Y-86232499D01*
X134072106Y-86232499D01*
X134288228Y-86599258D01*
X134748105Y-86839938D01*
X135246098Y-86986275D01*
X135763071Y-87032648D01*
X136279159Y-86977273D01*
X136774526Y-86822279D01*
X137191772Y-86599258D01*
X137407894Y-86232499D01*
X135740000Y-84564605D01*
X134072106Y-86232499D01*
X125120000Y-86232499D01*
X125120000Y-84408071D01*
X133092352Y-84408071D01*
X133147727Y-84924159D01*
X133302721Y-85419526D01*
X133525742Y-85836772D01*
X133892501Y-86052894D01*
X135560395Y-84385000D01*
X135919605Y-84385000D01*
X137587499Y-86052894D01*
X137954258Y-85836772D01*
X138194938Y-85376895D01*
X138341275Y-84878902D01*
X138387648Y-84361929D01*
X138332273Y-83845841D01*
X138177279Y-83350474D01*
X137954258Y-82933228D01*
X137587499Y-82717106D01*
X135919605Y-84385000D01*
X135560395Y-84385000D01*
X133892501Y-82717106D01*
X133525742Y-82933228D01*
X133285062Y-83393105D01*
X133138725Y-83891098D01*
X133092352Y-84408071D01*
X125120000Y-84408071D01*
X125120000Y-82537501D01*
X134072106Y-82537501D01*
X135740000Y-84205395D01*
X137407894Y-82537501D01*
X137191772Y-82170742D01*
X136731895Y-81930062D01*
X136233902Y-81783725D01*
X135716929Y-81737352D01*
X135200841Y-81792727D01*
X134705474Y-81947721D01*
X134288228Y-82170742D01*
X134072106Y-82537501D01*
X125120000Y-82537501D01*
X125120000Y-78337702D01*
X134366903Y-78337702D01*
X134438486Y-78581671D01*
X134693996Y-78702571D01*
X134968184Y-78771300D01*
X135250512Y-78785217D01*
X135530130Y-78743787D01*
X135796292Y-78648603D01*
X135921514Y-78581671D01*
X135993097Y-78337702D01*
X135180000Y-77524605D01*
X134366903Y-78337702D01*
X125120000Y-78337702D01*
X125120000Y-63500000D01*
X128776323Y-63500000D01*
X128780000Y-63537333D01*
X128780001Y-71082657D01*
X128776323Y-71120000D01*
X128790997Y-71268986D01*
X128834454Y-71412247D01*
X128905026Y-71544276D01*
X128999999Y-71660001D01*
X129115724Y-71754974D01*
X129247753Y-71825546D01*
X129391014Y-71869003D01*
X129502667Y-71880000D01*
X129540000Y-71883677D01*
X129577333Y-71880000D01*
X131788604Y-71880000D01*
X131820147Y-72038574D01*
X131928320Y-72299727D01*
X132085363Y-72534759D01*
X132285241Y-72734637D01*
X132330683Y-72765000D01*
X132285241Y-72795363D01*
X132085363Y-72995241D01*
X131928320Y-73230273D01*
X131820147Y-73491426D01*
X131765000Y-73768665D01*
X131765000Y-74051335D01*
X131820147Y-74328574D01*
X131928320Y-74589727D01*
X132085363Y-74824759D01*
X132285241Y-75024637D01*
X132330683Y-75055000D01*
X132285241Y-75085363D01*
X132085363Y-75285241D01*
X131928320Y-75520273D01*
X131820147Y-75781426D01*
X131765000Y-76058665D01*
X131765000Y-76341335D01*
X131820147Y-76618574D01*
X131928320Y-76879727D01*
X132085363Y-77114759D01*
X132285241Y-77314637D01*
X132520273Y-77471680D01*
X132781426Y-77579853D01*
X133058665Y-77635000D01*
X133341335Y-77635000D01*
X133618574Y-77579853D01*
X133755716Y-77523047D01*
X133781213Y-77695130D01*
X133876397Y-77961292D01*
X133943329Y-78086514D01*
X134187298Y-78158097D01*
X135000395Y-77345000D01*
X134986253Y-77330858D01*
X135165858Y-77151253D01*
X135180000Y-77165395D01*
X135194143Y-77151253D01*
X135373748Y-77330858D01*
X135359605Y-77345000D01*
X136172702Y-78158097D01*
X136416671Y-78086514D01*
X136537571Y-77831004D01*
X136585932Y-77638072D01*
X137523271Y-77638072D01*
X144020001Y-84134803D01*
X144020000Y-87681956D01*
X143865241Y-87785363D01*
X143665363Y-87985241D01*
X143508320Y-88220273D01*
X143400147Y-88481426D01*
X143345000Y-88758665D01*
X143345000Y-89041335D01*
X143400147Y-89318574D01*
X143508320Y-89579727D01*
X143665363Y-89814759D01*
X143865241Y-90014637D01*
X144100273Y-90171680D01*
X144361426Y-90279853D01*
X144638665Y-90335000D01*
X144921335Y-90335000D01*
X145198574Y-90279853D01*
X145459727Y-90171680D01*
X145694759Y-90014637D01*
X145894637Y-89814759D01*
X146051680Y-89579727D01*
X146159853Y-89318574D01*
X146215000Y-89041335D01*
X146215000Y-88758665D01*
X146178688Y-88576114D01*
X146364802Y-88390000D01*
X148641957Y-88390000D01*
X148745363Y-88544759D01*
X148945241Y-88744637D01*
X149180273Y-88901680D01*
X149441426Y-89009853D01*
X149718665Y-89065000D01*
X150001335Y-89065000D01*
X150278574Y-89009853D01*
X150539727Y-88901680D01*
X150774759Y-88744637D01*
X150974637Y-88544759D01*
X151078043Y-88390000D01*
X153632678Y-88390000D01*
X153670000Y-88393676D01*
X153707322Y-88390000D01*
X153707333Y-88390000D01*
X153818986Y-88379003D01*
X153962247Y-88335546D01*
X154094276Y-88264974D01*
X154210001Y-88170001D01*
X154233804Y-88140997D01*
X154886136Y-87488665D01*
X156045000Y-87488665D01*
X156045000Y-87771335D01*
X156100147Y-88048574D01*
X156208320Y-88309727D01*
X156365363Y-88544759D01*
X156565241Y-88744637D01*
X156800273Y-88901680D01*
X157061426Y-89009853D01*
X157338665Y-89065000D01*
X157621335Y-89065000D01*
X157898574Y-89009853D01*
X158159727Y-88901680D01*
X158394759Y-88744637D01*
X158594637Y-88544759D01*
X158698043Y-88390000D01*
X158801957Y-88390000D01*
X158905363Y-88544759D01*
X159105241Y-88744637D01*
X159340273Y-88901680D01*
X159601426Y-89009853D01*
X159878665Y-89065000D01*
X160161335Y-89065000D01*
X160438574Y-89009853D01*
X160699727Y-88901680D01*
X160934759Y-88744637D01*
X161134637Y-88544759D01*
X161291680Y-88309727D01*
X161399853Y-88048574D01*
X161455000Y-87771335D01*
X161455000Y-87488665D01*
X166205000Y-87488665D01*
X166205000Y-87771335D01*
X166260147Y-88048574D01*
X166368320Y-88309727D01*
X166525363Y-88544759D01*
X166725241Y-88744637D01*
X166960273Y-88901680D01*
X167221426Y-89009853D01*
X167498665Y-89065000D01*
X167781335Y-89065000D01*
X168058574Y-89009853D01*
X168319727Y-88901680D01*
X168554759Y-88744637D01*
X168754637Y-88544759D01*
X168858043Y-88390000D01*
X168961957Y-88390000D01*
X169065363Y-88544759D01*
X169265241Y-88744637D01*
X169500273Y-88901680D01*
X169761426Y-89009853D01*
X170038665Y-89065000D01*
X170321335Y-89065000D01*
X170598574Y-89009853D01*
X170859727Y-88901680D01*
X171094759Y-88744637D01*
X171294637Y-88544759D01*
X171451680Y-88309727D01*
X171559853Y-88048574D01*
X171615000Y-87771335D01*
X171615000Y-87488665D01*
X171559853Y-87211426D01*
X171451680Y-86950273D01*
X171294637Y-86715241D01*
X171094759Y-86515363D01*
X170859727Y-86358320D01*
X170598574Y-86250147D01*
X170321335Y-86195000D01*
X170038665Y-86195000D01*
X169761426Y-86250147D01*
X169500273Y-86358320D01*
X169265241Y-86515363D01*
X169065363Y-86715241D01*
X168961957Y-86870000D01*
X168858043Y-86870000D01*
X168754637Y-86715241D01*
X168554759Y-86515363D01*
X168319727Y-86358320D01*
X168058574Y-86250147D01*
X167781335Y-86195000D01*
X167498665Y-86195000D01*
X167221426Y-86250147D01*
X166960273Y-86358320D01*
X166725241Y-86515363D01*
X166525363Y-86715241D01*
X166368320Y-86950273D01*
X166260147Y-87211426D01*
X166205000Y-87488665D01*
X161455000Y-87488665D01*
X161399853Y-87211426D01*
X161291680Y-86950273D01*
X161134637Y-86715241D01*
X160934759Y-86515363D01*
X160699727Y-86358320D01*
X160438574Y-86250147D01*
X160161335Y-86195000D01*
X159878665Y-86195000D01*
X159601426Y-86250147D01*
X159340273Y-86358320D01*
X159105241Y-86515363D01*
X158905363Y-86715241D01*
X158801957Y-86870000D01*
X158698043Y-86870000D01*
X158594637Y-86715241D01*
X158394759Y-86515363D01*
X158159727Y-86358320D01*
X157898574Y-86250147D01*
X157621335Y-86195000D01*
X157338665Y-86195000D01*
X157061426Y-86250147D01*
X156800273Y-86358320D01*
X156565241Y-86515363D01*
X156365363Y-86715241D01*
X156208320Y-86950273D01*
X156100147Y-87211426D01*
X156045000Y-87488665D01*
X154886136Y-87488665D01*
X159696114Y-82678688D01*
X159878665Y-82715000D01*
X160161335Y-82715000D01*
X160438574Y-82659853D01*
X160699727Y-82551680D01*
X160934759Y-82394637D01*
X161134637Y-82194759D01*
X161291680Y-81959727D01*
X161399853Y-81698574D01*
X161455000Y-81421335D01*
X161455000Y-81138665D01*
X166205000Y-81138665D01*
X166205000Y-81421335D01*
X166260147Y-81698574D01*
X166368320Y-81959727D01*
X166525363Y-82194759D01*
X166725241Y-82394637D01*
X166960273Y-82551680D01*
X167221426Y-82659853D01*
X167498665Y-82715000D01*
X167781335Y-82715000D01*
X168058574Y-82659853D01*
X168319727Y-82551680D01*
X168554759Y-82394637D01*
X168754637Y-82194759D01*
X168858043Y-82040000D01*
X168961957Y-82040000D01*
X169065363Y-82194759D01*
X169265241Y-82394637D01*
X169500273Y-82551680D01*
X169761426Y-82659853D01*
X170038665Y-82715000D01*
X170321335Y-82715000D01*
X170598574Y-82659853D01*
X170859727Y-82551680D01*
X171094759Y-82394637D01*
X171294637Y-82194759D01*
X171451680Y-81959727D01*
X171559853Y-81698574D01*
X171615000Y-81421335D01*
X171615000Y-81138665D01*
X171559853Y-80861426D01*
X171451680Y-80600273D01*
X171294637Y-80365241D01*
X171094759Y-80165363D01*
X170859727Y-80008320D01*
X170598574Y-79900147D01*
X170321335Y-79845000D01*
X170038665Y-79845000D01*
X169761426Y-79900147D01*
X169500273Y-80008320D01*
X169265241Y-80165363D01*
X169065363Y-80365241D01*
X168961957Y-80520000D01*
X168858043Y-80520000D01*
X168754637Y-80365241D01*
X168554759Y-80165363D01*
X168319727Y-80008320D01*
X168058574Y-79900147D01*
X167781335Y-79845000D01*
X167498665Y-79845000D01*
X167221426Y-79900147D01*
X166960273Y-80008320D01*
X166725241Y-80165363D01*
X166525363Y-80365241D01*
X166368320Y-80600273D01*
X166260147Y-80861426D01*
X166205000Y-81138665D01*
X161455000Y-81138665D01*
X161399853Y-80861426D01*
X161291680Y-80600273D01*
X161134637Y-80365241D01*
X160934759Y-80165363D01*
X160699727Y-80008320D01*
X160438574Y-79900147D01*
X160161335Y-79845000D01*
X159878665Y-79845000D01*
X159601426Y-79900147D01*
X159340273Y-80008320D01*
X159105241Y-80165363D01*
X158905363Y-80365241D01*
X158748320Y-80600273D01*
X158743643Y-80611565D01*
X158711037Y-80542580D01*
X158543519Y-80316586D01*
X158335131Y-80127615D01*
X158093881Y-79982930D01*
X157829040Y-79888091D01*
X157607000Y-80009376D01*
X157607000Y-81153000D01*
X157627000Y-81153000D01*
X157627000Y-81407000D01*
X157607000Y-81407000D01*
X157607000Y-82550624D01*
X157650703Y-82574496D01*
X153355199Y-86870000D01*
X151078043Y-86870000D01*
X150974637Y-86715241D01*
X150774759Y-86515363D01*
X150539727Y-86358320D01*
X150278574Y-86250147D01*
X150001335Y-86195000D01*
X149718665Y-86195000D01*
X149441426Y-86250147D01*
X149180273Y-86358320D01*
X148945241Y-86515363D01*
X148745363Y-86715241D01*
X148641957Y-86870000D01*
X146087322Y-86870000D01*
X146049999Y-86866324D01*
X146012676Y-86870000D01*
X146012667Y-86870000D01*
X145901014Y-86880997D01*
X145757753Y-86924454D01*
X145625724Y-86995026D01*
X145540000Y-87065378D01*
X145540000Y-83857322D01*
X145543676Y-83819999D01*
X145540000Y-83782676D01*
X145540000Y-83782667D01*
X145529003Y-83671014D01*
X145485546Y-83527753D01*
X145414974Y-83395724D01*
X145320001Y-83279999D01*
X145291003Y-83256201D01*
X144749802Y-82715000D01*
X144921335Y-82715000D01*
X145198574Y-82659853D01*
X145459727Y-82551680D01*
X145694759Y-82394637D01*
X145894637Y-82194759D01*
X145998043Y-82040000D01*
X148641957Y-82040000D01*
X148745363Y-82194759D01*
X148945241Y-82394637D01*
X149180273Y-82551680D01*
X149441426Y-82659853D01*
X149718665Y-82715000D01*
X150001335Y-82715000D01*
X150278574Y-82659853D01*
X150539727Y-82551680D01*
X150774759Y-82394637D01*
X150974637Y-82194759D01*
X151131680Y-81959727D01*
X151239853Y-81698574D01*
X151253684Y-81629039D01*
X156088096Y-81629039D01*
X156128754Y-81763087D01*
X156248963Y-82017420D01*
X156416481Y-82243414D01*
X156624869Y-82432385D01*
X156866119Y-82577070D01*
X157130960Y-82671909D01*
X157353000Y-82550624D01*
X157353000Y-81407000D01*
X156210085Y-81407000D01*
X156088096Y-81629039D01*
X151253684Y-81629039D01*
X151295000Y-81421335D01*
X151295000Y-81138665D01*
X151253685Y-80930961D01*
X156088096Y-80930961D01*
X156210085Y-81153000D01*
X157353000Y-81153000D01*
X157353000Y-80009376D01*
X157130960Y-79888091D01*
X156866119Y-79982930D01*
X156624869Y-80127615D01*
X156416481Y-80316586D01*
X156248963Y-80542580D01*
X156128754Y-80796913D01*
X156088096Y-80930961D01*
X151253685Y-80930961D01*
X151239853Y-80861426D01*
X151131680Y-80600273D01*
X150974637Y-80365241D01*
X150774759Y-80165363D01*
X150539727Y-80008320D01*
X150278574Y-79900147D01*
X150001335Y-79845000D01*
X149718665Y-79845000D01*
X149441426Y-79900147D01*
X149180273Y-80008320D01*
X148945241Y-80165363D01*
X148745363Y-80365241D01*
X148641957Y-80520000D01*
X145998043Y-80520000D01*
X145894637Y-80365241D01*
X145694759Y-80165363D01*
X145459727Y-80008320D01*
X145198574Y-79900147D01*
X144921335Y-79845000D01*
X144638665Y-79845000D01*
X144361426Y-79900147D01*
X144100273Y-80008320D01*
X143865241Y-80165363D01*
X143665363Y-80365241D01*
X143508320Y-80600273D01*
X143400147Y-80861426D01*
X143345000Y-81138665D01*
X143345000Y-81310198D01*
X138598072Y-76563271D01*
X138598072Y-76422874D01*
X138886200Y-76711002D01*
X138909999Y-76740001D01*
X138938997Y-76763799D01*
X139025723Y-76834974D01*
X139153759Y-76903411D01*
X139157753Y-76905546D01*
X139301014Y-76949003D01*
X139412667Y-76960000D01*
X139412676Y-76960000D01*
X139449999Y-76963676D01*
X139487322Y-76960000D01*
X143561957Y-76960000D01*
X143665363Y-77114759D01*
X143865241Y-77314637D01*
X144100273Y-77471680D01*
X144361426Y-77579853D01*
X144638665Y-77635000D01*
X144921335Y-77635000D01*
X145198574Y-77579853D01*
X145459727Y-77471680D01*
X145694759Y-77314637D01*
X145894637Y-77114759D01*
X146051680Y-76879727D01*
X146159853Y-76618574D01*
X146215000Y-76341335D01*
X146215000Y-76058665D01*
X146178688Y-75876114D01*
X146364802Y-75690000D01*
X148641957Y-75690000D01*
X148745363Y-75844759D01*
X148945241Y-76044637D01*
X149180273Y-76201680D01*
X149441426Y-76309853D01*
X149718665Y-76365000D01*
X150001335Y-76365000D01*
X150278574Y-76309853D01*
X150539727Y-76201680D01*
X150774759Y-76044637D01*
X150974637Y-75844759D01*
X151078043Y-75690000D01*
X153632678Y-75690000D01*
X153670000Y-75693676D01*
X153707322Y-75690000D01*
X153707333Y-75690000D01*
X153818986Y-75679003D01*
X153962247Y-75635546D01*
X154094276Y-75564974D01*
X154210001Y-75470001D01*
X154233804Y-75440997D01*
X154886136Y-74788665D01*
X156045000Y-74788665D01*
X156045000Y-75071335D01*
X156100147Y-75348574D01*
X156208320Y-75609727D01*
X156365363Y-75844759D01*
X156565241Y-76044637D01*
X156800273Y-76201680D01*
X157061426Y-76309853D01*
X157338665Y-76365000D01*
X157621335Y-76365000D01*
X157898574Y-76309853D01*
X158159727Y-76201680D01*
X158394759Y-76044637D01*
X158594637Y-75844759D01*
X158698043Y-75690000D01*
X158801957Y-75690000D01*
X158905363Y-75844759D01*
X159105241Y-76044637D01*
X159340273Y-76201680D01*
X159601426Y-76309853D01*
X159878665Y-76365000D01*
X160161335Y-76365000D01*
X160438574Y-76309853D01*
X160699727Y-76201680D01*
X160934759Y-76044637D01*
X161134637Y-75844759D01*
X161291680Y-75609727D01*
X161399853Y-75348574D01*
X161455000Y-75071335D01*
X161455000Y-74788665D01*
X166205000Y-74788665D01*
X166205000Y-75071335D01*
X166260147Y-75348574D01*
X166368320Y-75609727D01*
X166525363Y-75844759D01*
X166725241Y-76044637D01*
X166960273Y-76201680D01*
X167221426Y-76309853D01*
X167498665Y-76365000D01*
X167781335Y-76365000D01*
X168058574Y-76309853D01*
X168319727Y-76201680D01*
X168554759Y-76044637D01*
X168754637Y-75844759D01*
X168858043Y-75690000D01*
X168961957Y-75690000D01*
X169065363Y-75844759D01*
X169265241Y-76044637D01*
X169500273Y-76201680D01*
X169761426Y-76309853D01*
X170038665Y-76365000D01*
X170321335Y-76365000D01*
X170598574Y-76309853D01*
X170859727Y-76201680D01*
X171094759Y-76044637D01*
X171294637Y-75844759D01*
X171451680Y-75609727D01*
X171559853Y-75348574D01*
X171615000Y-75071335D01*
X171615000Y-74788665D01*
X171559853Y-74511426D01*
X171451680Y-74250273D01*
X171294637Y-74015241D01*
X171094759Y-73815363D01*
X170859727Y-73658320D01*
X170598574Y-73550147D01*
X170321335Y-73495000D01*
X170038665Y-73495000D01*
X169761426Y-73550147D01*
X169500273Y-73658320D01*
X169265241Y-73815363D01*
X169065363Y-74015241D01*
X168961957Y-74170000D01*
X168858043Y-74170000D01*
X168754637Y-74015241D01*
X168554759Y-73815363D01*
X168319727Y-73658320D01*
X168058574Y-73550147D01*
X167781335Y-73495000D01*
X167498665Y-73495000D01*
X167221426Y-73550147D01*
X166960273Y-73658320D01*
X166725241Y-73815363D01*
X166525363Y-74015241D01*
X166368320Y-74250273D01*
X166260147Y-74511426D01*
X166205000Y-74788665D01*
X161455000Y-74788665D01*
X161399853Y-74511426D01*
X161291680Y-74250273D01*
X161134637Y-74015241D01*
X160934759Y-73815363D01*
X160699727Y-73658320D01*
X160438574Y-73550147D01*
X160161335Y-73495000D01*
X159878665Y-73495000D01*
X159601426Y-73550147D01*
X159340273Y-73658320D01*
X159105241Y-73815363D01*
X158905363Y-74015241D01*
X158801957Y-74170000D01*
X158698043Y-74170000D01*
X158594637Y-74015241D01*
X158394759Y-73815363D01*
X158159727Y-73658320D01*
X157898574Y-73550147D01*
X157621335Y-73495000D01*
X157338665Y-73495000D01*
X157061426Y-73550147D01*
X156800273Y-73658320D01*
X156565241Y-73815363D01*
X156365363Y-74015241D01*
X156208320Y-74250273D01*
X156100147Y-74511426D01*
X156045000Y-74788665D01*
X154886136Y-74788665D01*
X159696114Y-69978688D01*
X159878665Y-70015000D01*
X160161335Y-70015000D01*
X160438574Y-69959853D01*
X160699727Y-69851680D01*
X160934759Y-69694637D01*
X161134637Y-69494759D01*
X161291680Y-69259727D01*
X161399853Y-68998574D01*
X161455000Y-68721335D01*
X161455000Y-68438665D01*
X161399853Y-68161426D01*
X161291680Y-67900273D01*
X161134637Y-67665241D01*
X160934759Y-67465363D01*
X160699727Y-67308320D01*
X160438574Y-67200147D01*
X160161335Y-67145000D01*
X159878665Y-67145000D01*
X159601426Y-67200147D01*
X159340273Y-67308320D01*
X159105241Y-67465363D01*
X158905363Y-67665241D01*
X158748320Y-67900273D01*
X158743643Y-67911565D01*
X158711037Y-67842580D01*
X158543519Y-67616586D01*
X158335131Y-67427615D01*
X158093881Y-67282930D01*
X157829040Y-67188091D01*
X157607000Y-67309376D01*
X157607000Y-68453000D01*
X157627000Y-68453000D01*
X157627000Y-68707000D01*
X157607000Y-68707000D01*
X157607000Y-69850624D01*
X157650703Y-69874496D01*
X153355199Y-74170000D01*
X151078043Y-74170000D01*
X150974637Y-74015241D01*
X150774759Y-73815363D01*
X150539727Y-73658320D01*
X150278574Y-73550147D01*
X150001335Y-73495000D01*
X149718665Y-73495000D01*
X149441426Y-73550147D01*
X149180273Y-73658320D01*
X148945241Y-73815363D01*
X148745363Y-74015241D01*
X148641957Y-74170000D01*
X146087322Y-74170000D01*
X146049999Y-74166324D01*
X146012676Y-74170000D01*
X146012667Y-74170000D01*
X145901014Y-74180997D01*
X145757753Y-74224454D01*
X145625724Y-74295026D01*
X145509999Y-74389999D01*
X145486201Y-74418997D01*
X145103886Y-74801312D01*
X144921335Y-74765000D01*
X144638665Y-74765000D01*
X144361426Y-74820147D01*
X144100273Y-74928320D01*
X143865241Y-75085363D01*
X143665363Y-75285241D01*
X143561957Y-75440000D01*
X139764802Y-75440000D01*
X138558688Y-74233886D01*
X138595000Y-74051335D01*
X138595000Y-73768665D01*
X138539853Y-73491426D01*
X138431680Y-73230273D01*
X138274637Y-72995241D01*
X138074759Y-72795363D01*
X138029317Y-72765000D01*
X138074759Y-72734637D01*
X138274637Y-72534759D01*
X138431680Y-72299727D01*
X138539853Y-72038574D01*
X138595000Y-71761335D01*
X138595000Y-71478665D01*
X138558688Y-71296113D01*
X141416136Y-68438665D01*
X143345000Y-68438665D01*
X143345000Y-68721335D01*
X143400147Y-68998574D01*
X143508320Y-69259727D01*
X143665363Y-69494759D01*
X143865241Y-69694637D01*
X144100273Y-69851680D01*
X144361426Y-69959853D01*
X144638665Y-70015000D01*
X144921335Y-70015000D01*
X145198574Y-69959853D01*
X145459727Y-69851680D01*
X145694759Y-69694637D01*
X145894637Y-69494759D01*
X145998043Y-69340000D01*
X148641957Y-69340000D01*
X148745363Y-69494759D01*
X148945241Y-69694637D01*
X149180273Y-69851680D01*
X149441426Y-69959853D01*
X149718665Y-70015000D01*
X150001335Y-70015000D01*
X150278574Y-69959853D01*
X150539727Y-69851680D01*
X150774759Y-69694637D01*
X150974637Y-69494759D01*
X151131680Y-69259727D01*
X151239853Y-68998574D01*
X151253684Y-68929039D01*
X156088096Y-68929039D01*
X156128754Y-69063087D01*
X156248963Y-69317420D01*
X156416481Y-69543414D01*
X156624869Y-69732385D01*
X156866119Y-69877070D01*
X157130960Y-69971909D01*
X157353000Y-69850624D01*
X157353000Y-68707000D01*
X156210085Y-68707000D01*
X156088096Y-68929039D01*
X151253684Y-68929039D01*
X151295000Y-68721335D01*
X151295000Y-68438665D01*
X151253685Y-68230961D01*
X156088096Y-68230961D01*
X156210085Y-68453000D01*
X157353000Y-68453000D01*
X157353000Y-67309376D01*
X157130960Y-67188091D01*
X156866119Y-67282930D01*
X156624869Y-67427615D01*
X156416481Y-67616586D01*
X156248963Y-67842580D01*
X156128754Y-68096913D01*
X156088096Y-68230961D01*
X151253685Y-68230961D01*
X151239853Y-68161426D01*
X151131680Y-67900273D01*
X150974637Y-67665241D01*
X150774759Y-67465363D01*
X150539727Y-67308320D01*
X150278574Y-67200147D01*
X150001335Y-67145000D01*
X149718665Y-67145000D01*
X149441426Y-67200147D01*
X149180273Y-67308320D01*
X148945241Y-67465363D01*
X148745363Y-67665241D01*
X148641957Y-67820000D01*
X145998043Y-67820000D01*
X145894637Y-67665241D01*
X145694759Y-67465363D01*
X145459727Y-67308320D01*
X145198574Y-67200147D01*
X144921335Y-67145000D01*
X144638665Y-67145000D01*
X144361426Y-67200147D01*
X144100273Y-67308320D01*
X143865241Y-67465363D01*
X143665363Y-67665241D01*
X143508320Y-67900273D01*
X143400147Y-68161426D01*
X143345000Y-68438665D01*
X141416136Y-68438665D01*
X145291003Y-64563799D01*
X145320001Y-64540001D01*
X145414974Y-64424276D01*
X145485546Y-64292247D01*
X145529003Y-64148986D01*
X145540000Y-64037333D01*
X145540000Y-64037324D01*
X145543676Y-64000001D01*
X145540000Y-63962678D01*
X145540000Y-63448043D01*
X145694759Y-63344637D01*
X145894637Y-63144759D01*
X145998043Y-62990000D01*
X148641957Y-62990000D01*
X148745363Y-63144759D01*
X148945241Y-63344637D01*
X149180273Y-63501680D01*
X149441426Y-63609853D01*
X149718665Y-63665000D01*
X150001335Y-63665000D01*
X150278574Y-63609853D01*
X150539727Y-63501680D01*
X150774759Y-63344637D01*
X150974637Y-63144759D01*
X151131680Y-62909727D01*
X151239853Y-62648574D01*
X151295000Y-62371335D01*
X151295000Y-62088665D01*
X156045000Y-62088665D01*
X156045000Y-62371335D01*
X156100147Y-62648574D01*
X156208320Y-62909727D01*
X156365363Y-63144759D01*
X156565241Y-63344637D01*
X156800273Y-63501680D01*
X157061426Y-63609853D01*
X157338665Y-63665000D01*
X157621335Y-63665000D01*
X157898574Y-63609853D01*
X158159727Y-63501680D01*
X158394759Y-63344637D01*
X158594637Y-63144759D01*
X158698043Y-62990000D01*
X158801957Y-62990000D01*
X158905363Y-63144759D01*
X159105241Y-63344637D01*
X159340273Y-63501680D01*
X159601426Y-63609853D01*
X159878665Y-63665000D01*
X160161335Y-63665000D01*
X160438574Y-63609853D01*
X160699727Y-63501680D01*
X160934759Y-63344637D01*
X161134637Y-63144759D01*
X161291680Y-62909727D01*
X161399853Y-62648574D01*
X161455000Y-62371335D01*
X161455000Y-62088665D01*
X161399853Y-61811426D01*
X161291680Y-61550273D01*
X161134637Y-61315241D01*
X160934759Y-61115363D01*
X160699727Y-60958320D01*
X160438574Y-60850147D01*
X160161335Y-60795000D01*
X159878665Y-60795000D01*
X159601426Y-60850147D01*
X159340273Y-60958320D01*
X159105241Y-61115363D01*
X158905363Y-61315241D01*
X158801957Y-61470000D01*
X158698043Y-61470000D01*
X158594637Y-61315241D01*
X158394759Y-61115363D01*
X158159727Y-60958320D01*
X157898574Y-60850147D01*
X157621335Y-60795000D01*
X157338665Y-60795000D01*
X157061426Y-60850147D01*
X156800273Y-60958320D01*
X156565241Y-61115363D01*
X156365363Y-61315241D01*
X156208320Y-61550273D01*
X156100147Y-61811426D01*
X156045000Y-62088665D01*
X151295000Y-62088665D01*
X151239853Y-61811426D01*
X151131680Y-61550273D01*
X150974637Y-61315241D01*
X150846414Y-61187018D01*
X156045000Y-55988432D01*
X156045000Y-56007002D01*
X156210084Y-56007002D01*
X156088096Y-56229039D01*
X156128754Y-56363087D01*
X156248963Y-56617420D01*
X156416481Y-56843414D01*
X156624869Y-57032385D01*
X156866119Y-57177070D01*
X157130960Y-57271909D01*
X157353000Y-57150624D01*
X157353000Y-56007000D01*
X157333000Y-56007000D01*
X157333000Y-55753000D01*
X157353000Y-55753000D01*
X157353000Y-55733000D01*
X157607000Y-55733000D01*
X157607000Y-55753000D01*
X157627000Y-55753000D01*
X157627000Y-56007000D01*
X157607000Y-56007000D01*
X157607000Y-57150624D01*
X157829040Y-57271909D01*
X158093881Y-57177070D01*
X158335131Y-57032385D01*
X158543519Y-56843414D01*
X158711037Y-56617420D01*
X158743643Y-56548435D01*
X158748320Y-56559727D01*
X158905363Y-56794759D01*
X159105241Y-56994637D01*
X159340273Y-57151680D01*
X159601426Y-57259853D01*
X159878665Y-57315000D01*
X160161335Y-57315000D01*
X160385001Y-57270509D01*
X160385001Y-57552678D01*
X160381325Y-57590001D01*
X160385001Y-57627323D01*
X160385001Y-57627333D01*
X160395998Y-57738986D01*
X160439455Y-57882247D01*
X160510027Y-58014277D01*
X160549872Y-58062827D01*
X160605000Y-58130002D01*
X160634004Y-58153805D01*
X169704093Y-67223895D01*
X169500273Y-67308320D01*
X169265241Y-67465363D01*
X169065363Y-67665241D01*
X168961957Y-67820000D01*
X168858043Y-67820000D01*
X168754637Y-67665241D01*
X168554759Y-67465363D01*
X168319727Y-67308320D01*
X168058574Y-67200147D01*
X167781335Y-67145000D01*
X167498665Y-67145000D01*
X167221426Y-67200147D01*
X166960273Y-67308320D01*
X166725241Y-67465363D01*
X166525363Y-67665241D01*
X166368320Y-67900273D01*
X166260147Y-68161426D01*
X166205000Y-68438665D01*
X166205000Y-68721335D01*
X166260147Y-68998574D01*
X166368320Y-69259727D01*
X166525363Y-69494759D01*
X166725241Y-69694637D01*
X166960273Y-69851680D01*
X167221426Y-69959853D01*
X167498665Y-70015000D01*
X167781335Y-70015000D01*
X168058574Y-69959853D01*
X168319727Y-69851680D01*
X168554759Y-69694637D01*
X168754637Y-69494759D01*
X168858043Y-69340000D01*
X168961957Y-69340000D01*
X169065363Y-69494759D01*
X169265241Y-69694637D01*
X169500273Y-69851680D01*
X169761426Y-69959853D01*
X170038665Y-70015000D01*
X170321335Y-70015000D01*
X170598574Y-69959853D01*
X170859727Y-69851680D01*
X171094759Y-69694637D01*
X171294637Y-69494759D01*
X171451680Y-69259727D01*
X171536105Y-69055907D01*
X172936199Y-70456001D01*
X172959998Y-70485000D01*
X173075723Y-70579973D01*
X173207752Y-70650545D01*
X173351013Y-70694002D01*
X173462666Y-70704999D01*
X173462674Y-70704999D01*
X173499999Y-70708675D01*
X173537324Y-70704999D01*
X179680200Y-70704999D01*
X177289003Y-73096196D01*
X177259999Y-73119999D01*
X177204871Y-73187174D01*
X177165026Y-73235724D01*
X177105974Y-73346201D01*
X177094454Y-73367754D01*
X177050997Y-73511015D01*
X177040000Y-73622668D01*
X177040000Y-73622678D01*
X177036324Y-73660000D01*
X177040000Y-73697323D01*
X177040000Y-73711957D01*
X176885241Y-73815363D01*
X176685363Y-74015241D01*
X176528320Y-74250273D01*
X176420147Y-74511426D01*
X176365000Y-74788665D01*
X176365000Y-75071335D01*
X176420147Y-75348574D01*
X176528320Y-75609727D01*
X176685363Y-75844759D01*
X176885241Y-76044637D01*
X177120273Y-76201680D01*
X177381426Y-76309853D01*
X177658665Y-76365000D01*
X177941335Y-76365000D01*
X178165001Y-76320509D01*
X178165002Y-79840196D01*
X178123886Y-79881312D01*
X177941335Y-79845000D01*
X177658665Y-79845000D01*
X177381426Y-79900147D01*
X177120273Y-80008320D01*
X176885241Y-80165363D01*
X176685363Y-80365241D01*
X176528320Y-80600273D01*
X176420147Y-80861426D01*
X176365000Y-81138665D01*
X176365000Y-81421335D01*
X176420147Y-81698574D01*
X176528320Y-81959727D01*
X176685363Y-82194759D01*
X176885241Y-82394637D01*
X177120273Y-82551680D01*
X177287559Y-82620972D01*
X177260000Y-82643589D01*
X177236202Y-82672587D01*
X177236201Y-82672588D01*
X177165026Y-82759314D01*
X177094454Y-82891344D01*
X177050998Y-83034605D01*
X177036324Y-83183590D01*
X177040001Y-83220922D01*
X177040000Y-86411956D01*
X176885241Y-86515363D01*
X176685363Y-86715241D01*
X176528320Y-86950273D01*
X176420147Y-87211426D01*
X176365000Y-87488665D01*
X176365000Y-87771335D01*
X176420147Y-88048574D01*
X176528320Y-88309727D01*
X176685363Y-88544759D01*
X176885241Y-88744637D01*
X177120273Y-88901680D01*
X177381426Y-89009853D01*
X177658665Y-89065000D01*
X177941335Y-89065000D01*
X178218574Y-89009853D01*
X178479727Y-88901680D01*
X178714759Y-88744637D01*
X178914637Y-88544759D01*
X179071680Y-88309727D01*
X179179853Y-88048574D01*
X179235000Y-87771335D01*
X179235000Y-87488665D01*
X179179853Y-87211426D01*
X179071680Y-86950273D01*
X178914637Y-86715241D01*
X178714759Y-86515363D01*
X178560000Y-86411957D01*
X178560000Y-83673740D01*
X181395000Y-83673740D01*
X181395000Y-83966260D01*
X181452068Y-84253158D01*
X181564010Y-84523411D01*
X181726525Y-84766632D01*
X181933368Y-84973475D01*
X182176589Y-85135990D01*
X182446842Y-85247932D01*
X182733740Y-85305000D01*
X183026260Y-85305000D01*
X183313158Y-85247932D01*
X183583411Y-85135990D01*
X183826632Y-84973475D01*
X184033475Y-84766632D01*
X184195990Y-84523411D01*
X184307932Y-84253158D01*
X184365000Y-83966260D01*
X184365000Y-83673740D01*
X184307932Y-83386842D01*
X184195990Y-83116589D01*
X184033475Y-82873368D01*
X183826632Y-82666525D01*
X183644466Y-82544805D01*
X183761355Y-82475178D01*
X183977588Y-82280269D01*
X184151641Y-82046920D01*
X184276825Y-81784099D01*
X184321476Y-81636890D01*
X184200155Y-81407000D01*
X183007000Y-81407000D01*
X183007000Y-81427000D01*
X182753000Y-81427000D01*
X182753000Y-81407000D01*
X181559845Y-81407000D01*
X181438524Y-81636890D01*
X181483175Y-81784099D01*
X181608359Y-82046920D01*
X181782412Y-82280269D01*
X181998645Y-82475178D01*
X182115534Y-82544805D01*
X181933368Y-82666525D01*
X181726525Y-82873368D01*
X181564010Y-83116589D01*
X181452068Y-83386842D01*
X181395000Y-83673740D01*
X178560000Y-83673740D01*
X178560000Y-83498391D01*
X182072171Y-79986220D01*
X182115534Y-80015195D01*
X181998645Y-80084822D01*
X181782412Y-80279731D01*
X181608359Y-80513080D01*
X181483175Y-80775901D01*
X181438524Y-80923110D01*
X181559845Y-81153000D01*
X182753000Y-81153000D01*
X182753000Y-81133000D01*
X183007000Y-81133000D01*
X183007000Y-81153000D01*
X184200155Y-81153000D01*
X184321476Y-80923110D01*
X184276825Y-80775901D01*
X184151641Y-80513080D01*
X183977588Y-80279731D01*
X183761355Y-80084822D01*
X183644466Y-80015195D01*
X183826632Y-79893475D01*
X184033475Y-79686632D01*
X184195990Y-79443411D01*
X184307932Y-79173158D01*
X184365000Y-78886260D01*
X184365000Y-78593740D01*
X184321210Y-78373592D01*
X185016013Y-77678789D01*
X185045011Y-77654991D01*
X185139984Y-77539266D01*
X185210556Y-77407237D01*
X185254013Y-77263976D01*
X185265010Y-77152323D01*
X185265010Y-77152314D01*
X185268686Y-77114991D01*
X185265010Y-77077668D01*
X185265010Y-65963330D01*
X185268686Y-65926007D01*
X185265010Y-65888684D01*
X185265010Y-65888675D01*
X185254013Y-65777022D01*
X185210556Y-65633761D01*
X185139984Y-65501732D01*
X185045011Y-65386007D01*
X185016014Y-65362210D01*
X184060295Y-64406492D01*
X184195990Y-64203411D01*
X184307932Y-63933158D01*
X184365000Y-63646260D01*
X184365000Y-63353740D01*
X184307932Y-63066842D01*
X184195990Y-62796589D01*
X184033475Y-62553368D01*
X183901620Y-62421513D01*
X183974180Y-62399502D01*
X184084494Y-62340537D01*
X184181185Y-62261185D01*
X184260537Y-62164494D01*
X184319502Y-62054180D01*
X184355812Y-61934482D01*
X184368072Y-61810000D01*
X184368072Y-60110000D01*
X184355812Y-59985518D01*
X184319502Y-59865820D01*
X184260537Y-59755506D01*
X184181185Y-59658815D01*
X184084494Y-59579463D01*
X183974180Y-59520498D01*
X183854482Y-59484188D01*
X183730000Y-59471928D01*
X182466730Y-59471928D01*
X179198688Y-56203887D01*
X179235000Y-56021335D01*
X179235000Y-55738665D01*
X179179853Y-55461426D01*
X179071680Y-55200273D01*
X178914637Y-54965241D01*
X178714759Y-54765363D01*
X178479727Y-54608320D01*
X178218574Y-54500147D01*
X177941335Y-54445000D01*
X177658665Y-54445000D01*
X177381426Y-54500147D01*
X177120273Y-54608320D01*
X176885241Y-54765363D01*
X176685363Y-54965241D01*
X176528320Y-55200273D01*
X176420147Y-55461426D01*
X176365000Y-55738665D01*
X176365000Y-56021335D01*
X176420147Y-56298574D01*
X176528320Y-56559727D01*
X176685363Y-56794759D01*
X176885241Y-56994637D01*
X177120273Y-57151680D01*
X177381426Y-57259853D01*
X177658665Y-57315000D01*
X177941335Y-57315000D01*
X178123887Y-57278688D01*
X181391928Y-60546730D01*
X181391928Y-61810000D01*
X181404188Y-61934482D01*
X181440498Y-62054180D01*
X181499463Y-62164494D01*
X181578815Y-62261185D01*
X181675506Y-62340537D01*
X181785820Y-62399502D01*
X181858380Y-62421513D01*
X181726525Y-62553368D01*
X181601822Y-62740000D01*
X179384802Y-62740000D01*
X179198688Y-62553886D01*
X179235000Y-62371335D01*
X179235000Y-62088665D01*
X179179853Y-61811426D01*
X179071680Y-61550273D01*
X178914637Y-61315241D01*
X178714759Y-61115363D01*
X178479727Y-60958320D01*
X178218574Y-60850147D01*
X177941335Y-60795000D01*
X177658665Y-60795000D01*
X177381426Y-60850147D01*
X177120273Y-60958320D01*
X176885241Y-61115363D01*
X176685363Y-61315241D01*
X176528320Y-61550273D01*
X176420147Y-61811426D01*
X176365000Y-62088665D01*
X176365000Y-62371335D01*
X176420147Y-62648574D01*
X176528320Y-62909727D01*
X176685363Y-63144759D01*
X176885241Y-63344637D01*
X177120273Y-63501680D01*
X177381426Y-63609853D01*
X177658665Y-63665000D01*
X177941335Y-63665000D01*
X178123886Y-63628688D01*
X178506201Y-64011003D01*
X178529999Y-64040001D01*
X178617607Y-64111899D01*
X178576013Y-64115996D01*
X178432752Y-64159453D01*
X178300723Y-64230025D01*
X178184998Y-64324998D01*
X178161200Y-64353996D01*
X177635198Y-64879999D01*
X177573060Y-64879999D01*
X177373101Y-64919773D01*
X177184743Y-64997794D01*
X177015225Y-65111062D01*
X176871062Y-65255225D01*
X176757794Y-65424743D01*
X176679773Y-65613101D01*
X176639999Y-65813060D01*
X176639999Y-66016938D01*
X176679773Y-66216897D01*
X176757794Y-66405255D01*
X176871062Y-66574773D01*
X177015225Y-66718936D01*
X177184743Y-66832204D01*
X177373101Y-66910225D01*
X177573060Y-66949999D01*
X177776938Y-66949999D01*
X177976897Y-66910225D01*
X178165255Y-66832204D01*
X178334773Y-66718936D01*
X178478936Y-66574773D01*
X178592204Y-66405255D01*
X178670225Y-66216897D01*
X178709999Y-66016938D01*
X178709999Y-65954800D01*
X179039801Y-65624999D01*
X179680198Y-65624999D01*
X178123886Y-67181312D01*
X177941335Y-67145000D01*
X177658665Y-67145000D01*
X177381426Y-67200147D01*
X177120273Y-67308320D01*
X176885241Y-67465363D01*
X176685363Y-67665241D01*
X176528320Y-67900273D01*
X176420147Y-68161426D01*
X176365000Y-68438665D01*
X176365000Y-68721335D01*
X176420147Y-68998574D01*
X176497367Y-69184999D01*
X173814801Y-69184999D01*
X168186617Y-63556816D01*
X168319727Y-63501680D01*
X168554759Y-63344637D01*
X168754637Y-63144759D01*
X168858043Y-62990000D01*
X168961957Y-62990000D01*
X169065363Y-63144759D01*
X169265241Y-63344637D01*
X169500273Y-63501680D01*
X169761426Y-63609853D01*
X170038665Y-63665000D01*
X170321335Y-63665000D01*
X170598574Y-63609853D01*
X170859727Y-63501680D01*
X171094759Y-63344637D01*
X171294637Y-63144759D01*
X171451680Y-62909727D01*
X171559853Y-62648574D01*
X171615000Y-62371335D01*
X171615000Y-62088665D01*
X171559853Y-61811426D01*
X171451680Y-61550273D01*
X171294637Y-61315241D01*
X171094759Y-61115363D01*
X170859727Y-60958320D01*
X170598574Y-60850147D01*
X170321335Y-60795000D01*
X170038665Y-60795000D01*
X169761426Y-60850147D01*
X169500273Y-60958320D01*
X169265241Y-61115363D01*
X169065363Y-61315241D01*
X168961957Y-61470000D01*
X168858043Y-61470000D01*
X168754637Y-61315241D01*
X168554759Y-61115363D01*
X168319727Y-60958320D01*
X168058574Y-60850147D01*
X167781335Y-60795000D01*
X167498665Y-60795000D01*
X167221426Y-60850147D01*
X166960273Y-60958320D01*
X166725241Y-61115363D01*
X166525363Y-61315241D01*
X166368320Y-61550273D01*
X166313184Y-61683383D01*
X161905001Y-57275200D01*
X161905001Y-55738665D01*
X166205000Y-55738665D01*
X166205000Y-56021335D01*
X166260147Y-56298574D01*
X166368320Y-56559727D01*
X166525363Y-56794759D01*
X166725241Y-56994637D01*
X166960273Y-57151680D01*
X167221426Y-57259853D01*
X167498665Y-57315000D01*
X167781335Y-57315000D01*
X168058574Y-57259853D01*
X168319727Y-57151680D01*
X168554759Y-56994637D01*
X168754637Y-56794759D01*
X168858043Y-56640000D01*
X168961957Y-56640000D01*
X169065363Y-56794759D01*
X169265241Y-56994637D01*
X169500273Y-57151680D01*
X169761426Y-57259853D01*
X170038665Y-57315000D01*
X170321335Y-57315000D01*
X170598574Y-57259853D01*
X170859727Y-57151680D01*
X171094759Y-56994637D01*
X171294637Y-56794759D01*
X171451680Y-56559727D01*
X171559853Y-56298574D01*
X171615000Y-56021335D01*
X171615000Y-55738665D01*
X171559853Y-55461426D01*
X171451680Y-55200273D01*
X171294637Y-54965241D01*
X171094759Y-54765363D01*
X170859727Y-54608320D01*
X170598574Y-54500147D01*
X170321335Y-54445000D01*
X170038665Y-54445000D01*
X169761426Y-54500147D01*
X169500273Y-54608320D01*
X169265241Y-54765363D01*
X169065363Y-54965241D01*
X168961957Y-55120000D01*
X168858043Y-55120000D01*
X168754637Y-54965241D01*
X168554759Y-54765363D01*
X168319727Y-54608320D01*
X168058574Y-54500147D01*
X167781335Y-54445000D01*
X167498665Y-54445000D01*
X167221426Y-54500147D01*
X166960273Y-54608320D01*
X166725241Y-54765363D01*
X166525363Y-54965241D01*
X166368320Y-55200273D01*
X166260147Y-55461426D01*
X166205000Y-55738665D01*
X161905001Y-55738665D01*
X161905001Y-55377321D01*
X161908677Y-55339998D01*
X161905001Y-55302675D01*
X161905001Y-55302666D01*
X161894004Y-55191013D01*
X161850547Y-55047752D01*
X161779975Y-54915723D01*
X161685002Y-54799998D01*
X161656004Y-54776200D01*
X160673795Y-53793991D01*
X160649992Y-53764988D01*
X160534267Y-53670015D01*
X160402238Y-53599443D01*
X160258977Y-53555986D01*
X160147324Y-53544989D01*
X160147313Y-53544989D01*
X160109991Y-53541313D01*
X160072669Y-53544989D01*
X156054553Y-53544989D01*
X156017230Y-53541313D01*
X155979907Y-53544989D01*
X155979898Y-53544989D01*
X155868245Y-53555986D01*
X155724984Y-53599443D01*
X155592955Y-53670015D01*
X155592953Y-53670016D01*
X155592954Y-53670016D01*
X155506227Y-53741190D01*
X155506223Y-53741194D01*
X155477230Y-53764988D01*
X155453436Y-53793981D01*
X149095190Y-60152229D01*
X138260957Y-60152229D01*
X138341275Y-59878902D01*
X138387648Y-59361929D01*
X138332273Y-58845841D01*
X138177279Y-58350474D01*
X137954258Y-57933228D01*
X137587499Y-57717106D01*
X135919605Y-59385000D01*
X135933748Y-59399143D01*
X135754143Y-59578748D01*
X135740000Y-59564605D01*
X134072106Y-61232499D01*
X134288228Y-61599258D01*
X134748105Y-61839938D01*
X135246098Y-61986275D01*
X135491875Y-62008321D01*
X134760197Y-62740000D01*
X129577333Y-62740000D01*
X129540000Y-62736323D01*
X129502667Y-62740000D01*
X129391014Y-62750997D01*
X129247753Y-62794454D01*
X129115724Y-62865026D01*
X128999999Y-62959999D01*
X128905026Y-63075724D01*
X128834454Y-63207753D01*
X128790997Y-63351014D01*
X128776323Y-63500000D01*
X125120000Y-63500000D01*
X125120000Y-59408071D01*
X133092352Y-59408071D01*
X133147727Y-59924159D01*
X133302721Y-60419526D01*
X133525742Y-60836772D01*
X133892501Y-61052894D01*
X135560395Y-59385000D01*
X133892501Y-57717106D01*
X133525742Y-57933228D01*
X133285062Y-58393105D01*
X133138725Y-58891098D01*
X133092352Y-59408071D01*
X125120000Y-59408071D01*
X125120000Y-57537501D01*
X134072106Y-57537501D01*
X135740000Y-59205395D01*
X137407894Y-57537501D01*
X137191772Y-57170742D01*
X136731895Y-56930062D01*
X136233902Y-56783725D01*
X135716929Y-56737352D01*
X135200841Y-56792727D01*
X134705474Y-56947721D01*
X134288228Y-57170742D01*
X134072106Y-57537501D01*
X125120000Y-57537501D01*
X125120000Y-54468665D01*
X143345000Y-54468665D01*
X143345000Y-54751335D01*
X143400147Y-55028574D01*
X143508320Y-55289727D01*
X143665363Y-55524759D01*
X143865241Y-55724637D01*
X144100273Y-55881680D01*
X144361426Y-55989853D01*
X144638665Y-56045000D01*
X144921335Y-56045000D01*
X145103886Y-56008688D01*
X145486200Y-56391002D01*
X145509999Y-56420001D01*
X145625724Y-56514974D01*
X145757753Y-56585546D01*
X145901014Y-56629003D01*
X146012667Y-56640000D01*
X146012676Y-56640000D01*
X146049999Y-56643676D01*
X146087322Y-56640000D01*
X148641957Y-56640000D01*
X148745363Y-56794759D01*
X148945241Y-56994637D01*
X149180273Y-57151680D01*
X149441426Y-57259853D01*
X149718665Y-57315000D01*
X150001335Y-57315000D01*
X150278574Y-57259853D01*
X150539727Y-57151680D01*
X150774759Y-56994637D01*
X150974637Y-56794759D01*
X151131680Y-56559727D01*
X151239853Y-56298574D01*
X151295000Y-56021335D01*
X151295000Y-55738665D01*
X151239853Y-55461426D01*
X151131680Y-55200273D01*
X150974637Y-54965241D01*
X150774759Y-54765363D01*
X150539727Y-54608320D01*
X150278574Y-54500147D01*
X150001335Y-54445000D01*
X149718665Y-54445000D01*
X149441426Y-54500147D01*
X149180273Y-54608320D01*
X148945241Y-54765363D01*
X148745363Y-54965241D01*
X148641957Y-55120000D01*
X146364802Y-55120000D01*
X146178688Y-54933886D01*
X146215000Y-54751335D01*
X146215000Y-54468665D01*
X146159853Y-54191426D01*
X146051680Y-53930273D01*
X145894637Y-53695241D01*
X145694759Y-53495363D01*
X145459727Y-53338320D01*
X145198574Y-53230147D01*
X144921335Y-53175000D01*
X144638665Y-53175000D01*
X144361426Y-53230147D01*
X144100273Y-53338320D01*
X143865241Y-53495363D01*
X143665363Y-53695241D01*
X143508320Y-53930273D01*
X143400147Y-54191426D01*
X143345000Y-54468665D01*
X125120000Y-54468665D01*
X125120000Y-50671503D01*
X128586274Y-50671503D01*
X128586274Y-51229949D01*
X128695222Y-51777665D01*
X128908930Y-52293602D01*
X129219186Y-52757933D01*
X129614067Y-53152814D01*
X130078398Y-53463070D01*
X130594335Y-53676778D01*
X131142051Y-53785726D01*
X131700497Y-53785726D01*
X132248213Y-53676778D01*
X132764150Y-53463070D01*
X133228481Y-53152814D01*
X133623362Y-52757933D01*
X133933618Y-52293602D01*
X134147326Y-51777665D01*
X134256274Y-51229949D01*
X134256274Y-50671503D01*
X134226293Y-50520777D01*
X179791000Y-50520777D01*
X179791000Y-51079223D01*
X179899948Y-51626939D01*
X180113656Y-52142876D01*
X180423912Y-52607207D01*
X180818793Y-53002088D01*
X181283124Y-53312344D01*
X181799061Y-53526052D01*
X182346777Y-53635000D01*
X182905223Y-53635000D01*
X183452939Y-53526052D01*
X183968876Y-53312344D01*
X184433207Y-53002088D01*
X184828088Y-52607207D01*
X185138344Y-52142876D01*
X185352052Y-51626939D01*
X185461000Y-51079223D01*
X185461000Y-50520777D01*
X185352052Y-49973061D01*
X185138344Y-49457124D01*
X184828088Y-48992793D01*
X184433207Y-48597912D01*
X183968876Y-48287656D01*
X183452939Y-48073948D01*
X182905223Y-47965000D01*
X182346777Y-47965000D01*
X181799061Y-48073948D01*
X181283124Y-48287656D01*
X180818793Y-48597912D01*
X180423912Y-48992793D01*
X180113656Y-49457124D01*
X179899948Y-49973061D01*
X179791000Y-50520777D01*
X134226293Y-50520777D01*
X134147326Y-50123787D01*
X133933618Y-49607850D01*
X133623362Y-49143519D01*
X133228481Y-48748638D01*
X132764150Y-48438382D01*
X132248213Y-48224674D01*
X131700497Y-48115726D01*
X131142051Y-48115726D01*
X130594335Y-48224674D01*
X130078398Y-48438382D01*
X129614067Y-48748638D01*
X129219186Y-49143519D01*
X128908930Y-49607850D01*
X128695222Y-50123787D01*
X128586274Y-50671503D01*
X125120000Y-50671503D01*
X125120000Y-46380000D01*
X187300000Y-46380000D01*
X187300001Y-95860000D01*
G37*
X187300001Y-95860000D02*
X125120000Y-95860000D01*
X125120000Y-91668777D01*
X128991000Y-91668777D01*
X128991000Y-92227223D01*
X129099948Y-92774939D01*
X129313656Y-93290876D01*
X129623912Y-93755207D01*
X130018793Y-94150088D01*
X130483124Y-94460344D01*
X130999061Y-94674052D01*
X131546777Y-94783000D01*
X132105223Y-94783000D01*
X132652939Y-94674052D01*
X133168876Y-94460344D01*
X133633207Y-94150088D01*
X134028088Y-93755207D01*
X134338344Y-93290876D01*
X134552052Y-92774939D01*
X134661000Y-92227223D01*
X134661000Y-91668777D01*
X134610477Y-91414777D01*
X180045000Y-91414777D01*
X180045000Y-91973223D01*
X180153948Y-92520939D01*
X180367656Y-93036876D01*
X180677912Y-93501207D01*
X181072793Y-93896088D01*
X181537124Y-94206344D01*
X182053061Y-94420052D01*
X182600777Y-94529000D01*
X183159223Y-94529000D01*
X183706939Y-94420052D01*
X184222876Y-94206344D01*
X184687207Y-93896088D01*
X185082088Y-93501207D01*
X185392344Y-93036876D01*
X185606052Y-92520939D01*
X185715000Y-91973223D01*
X185715000Y-91414777D01*
X185606052Y-90867061D01*
X185392344Y-90351124D01*
X185082088Y-89886793D01*
X184687207Y-89491912D01*
X184222876Y-89181656D01*
X183706939Y-88967948D01*
X183159223Y-88859000D01*
X182600777Y-88859000D01*
X182053061Y-88967948D01*
X181537124Y-89181656D01*
X181072793Y-89491912D01*
X180677912Y-89886793D01*
X180367656Y-90351124D01*
X180153948Y-90867061D01*
X180045000Y-91414777D01*
X134610477Y-91414777D01*
X134552052Y-91121061D01*
X134338344Y-90605124D01*
X134028088Y-90140793D01*
X133633207Y-89745912D01*
X133168876Y-89435656D01*
X132652939Y-89221948D01*
X132105223Y-89113000D01*
X131546777Y-89113000D01*
X130999061Y-89221948D01*
X130483124Y-89435656D01*
X130018793Y-89745912D01*
X129623912Y-90140793D01*
X129313656Y-90605124D01*
X129099948Y-91121061D01*
X128991000Y-91668777D01*
X125120000Y-91668777D01*
X125120000Y-86232499D01*
X134072106Y-86232499D01*
X134288228Y-86599258D01*
X134748105Y-86839938D01*
X135246098Y-86986275D01*
X135763071Y-87032648D01*
X136279159Y-86977273D01*
X136774526Y-86822279D01*
X137191772Y-86599258D01*
X137407894Y-86232499D01*
X135740000Y-84564605D01*
X134072106Y-86232499D01*
X125120000Y-86232499D01*
X125120000Y-84408071D01*
X133092352Y-84408071D01*
X133147727Y-84924159D01*
X133302721Y-85419526D01*
X133525742Y-85836772D01*
X133892501Y-86052894D01*
X135560395Y-84385000D01*
X135919605Y-84385000D01*
X137587499Y-86052894D01*
X137954258Y-85836772D01*
X138194938Y-85376895D01*
X138341275Y-84878902D01*
X138387648Y-84361929D01*
X138332273Y-83845841D01*
X138177279Y-83350474D01*
X137954258Y-82933228D01*
X137587499Y-82717106D01*
X135919605Y-84385000D01*
X135560395Y-84385000D01*
X133892501Y-82717106D01*
X133525742Y-82933228D01*
X133285062Y-83393105D01*
X133138725Y-83891098D01*
X133092352Y-84408071D01*
X125120000Y-84408071D01*
X125120000Y-82537501D01*
X134072106Y-82537501D01*
X135740000Y-84205395D01*
X137407894Y-82537501D01*
X137191772Y-82170742D01*
X136731895Y-81930062D01*
X136233902Y-81783725D01*
X135716929Y-81737352D01*
X135200841Y-81792727D01*
X134705474Y-81947721D01*
X134288228Y-82170742D01*
X134072106Y-82537501D01*
X125120000Y-82537501D01*
X125120000Y-78337702D01*
X134366903Y-78337702D01*
X134438486Y-78581671D01*
X134693996Y-78702571D01*
X134968184Y-78771300D01*
X135250512Y-78785217D01*
X135530130Y-78743787D01*
X135796292Y-78648603D01*
X135921514Y-78581671D01*
X135993097Y-78337702D01*
X135180000Y-77524605D01*
X134366903Y-78337702D01*
X125120000Y-78337702D01*
X125120000Y-63500000D01*
X128776323Y-63500000D01*
X128780000Y-63537333D01*
X128780001Y-71082657D01*
X128776323Y-71120000D01*
X128790997Y-71268986D01*
X128834454Y-71412247D01*
X128905026Y-71544276D01*
X128999999Y-71660001D01*
X129115724Y-71754974D01*
X129247753Y-71825546D01*
X129391014Y-71869003D01*
X129502667Y-71880000D01*
X129540000Y-71883677D01*
X129577333Y-71880000D01*
X131788604Y-71880000D01*
X131820147Y-72038574D01*
X131928320Y-72299727D01*
X132085363Y-72534759D01*
X132285241Y-72734637D01*
X132330683Y-72765000D01*
X132285241Y-72795363D01*
X132085363Y-72995241D01*
X131928320Y-73230273D01*
X131820147Y-73491426D01*
X131765000Y-73768665D01*
X131765000Y-74051335D01*
X131820147Y-74328574D01*
X131928320Y-74589727D01*
X132085363Y-74824759D01*
X132285241Y-75024637D01*
X132330683Y-75055000D01*
X132285241Y-75085363D01*
X132085363Y-75285241D01*
X131928320Y-75520273D01*
X131820147Y-75781426D01*
X131765000Y-76058665D01*
X131765000Y-76341335D01*
X131820147Y-76618574D01*
X131928320Y-76879727D01*
X132085363Y-77114759D01*
X132285241Y-77314637D01*
X132520273Y-77471680D01*
X132781426Y-77579853D01*
X133058665Y-77635000D01*
X133341335Y-77635000D01*
X133618574Y-77579853D01*
X133755716Y-77523047D01*
X133781213Y-77695130D01*
X133876397Y-77961292D01*
X133943329Y-78086514D01*
X134187298Y-78158097D01*
X135000395Y-77345000D01*
X134986253Y-77330858D01*
X135165858Y-77151253D01*
X135180000Y-77165395D01*
X135194143Y-77151253D01*
X135373748Y-77330858D01*
X135359605Y-77345000D01*
X136172702Y-78158097D01*
X136416671Y-78086514D01*
X136537571Y-77831004D01*
X136585932Y-77638072D01*
X137523271Y-77638072D01*
X144020001Y-84134803D01*
X144020000Y-87681956D01*
X143865241Y-87785363D01*
X143665363Y-87985241D01*
X143508320Y-88220273D01*
X143400147Y-88481426D01*
X143345000Y-88758665D01*
X143345000Y-89041335D01*
X143400147Y-89318574D01*
X143508320Y-89579727D01*
X143665363Y-89814759D01*
X143865241Y-90014637D01*
X144100273Y-90171680D01*
X144361426Y-90279853D01*
X144638665Y-90335000D01*
X144921335Y-90335000D01*
X145198574Y-90279853D01*
X145459727Y-90171680D01*
X145694759Y-90014637D01*
X145894637Y-89814759D01*
X146051680Y-89579727D01*
X146159853Y-89318574D01*
X146215000Y-89041335D01*
X146215000Y-88758665D01*
X146178688Y-88576114D01*
X146364802Y-88390000D01*
X148641957Y-88390000D01*
X148745363Y-88544759D01*
X148945241Y-88744637D01*
X149180273Y-88901680D01*
X149441426Y-89009853D01*
X149718665Y-89065000D01*
X150001335Y-89065000D01*
X150278574Y-89009853D01*
X150539727Y-88901680D01*
X150774759Y-88744637D01*
X150974637Y-88544759D01*
X151078043Y-88390000D01*
X153632678Y-88390000D01*
X153670000Y-88393676D01*
X153707322Y-88390000D01*
X153707333Y-88390000D01*
X153818986Y-88379003D01*
X153962247Y-88335546D01*
X154094276Y-88264974D01*
X154210001Y-88170001D01*
X154233804Y-88140997D01*
X154886136Y-87488665D01*
X156045000Y-87488665D01*
X156045000Y-87771335D01*
X156100147Y-88048574D01*
X156208320Y-88309727D01*
X156365363Y-88544759D01*
X156565241Y-88744637D01*
X156800273Y-88901680D01*
X157061426Y-89009853D01*
X157338665Y-89065000D01*
X157621335Y-89065000D01*
X157898574Y-89009853D01*
X158159727Y-88901680D01*
X158394759Y-88744637D01*
X158594637Y-88544759D01*
X158698043Y-88390000D01*
X158801957Y-88390000D01*
X158905363Y-88544759D01*
X159105241Y-88744637D01*
X159340273Y-88901680D01*
X159601426Y-89009853D01*
X159878665Y-89065000D01*
X160161335Y-89065000D01*
X160438574Y-89009853D01*
X160699727Y-88901680D01*
X160934759Y-88744637D01*
X161134637Y-88544759D01*
X161291680Y-88309727D01*
X161399853Y-88048574D01*
X161455000Y-87771335D01*
X161455000Y-87488665D01*
X166205000Y-87488665D01*
X166205000Y-87771335D01*
X166260147Y-88048574D01*
X166368320Y-88309727D01*
X166525363Y-88544759D01*
X166725241Y-88744637D01*
X166960273Y-88901680D01*
X167221426Y-89009853D01*
X167498665Y-89065000D01*
X167781335Y-89065000D01*
X168058574Y-89009853D01*
X168319727Y-88901680D01*
X168554759Y-88744637D01*
X168754637Y-88544759D01*
X168858043Y-88390000D01*
X168961957Y-88390000D01*
X169065363Y-88544759D01*
X169265241Y-88744637D01*
X169500273Y-88901680D01*
X169761426Y-89009853D01*
X170038665Y-89065000D01*
X170321335Y-89065000D01*
X170598574Y-89009853D01*
X170859727Y-88901680D01*
X171094759Y-88744637D01*
X171294637Y-88544759D01*
X171451680Y-88309727D01*
X171559853Y-88048574D01*
X171615000Y-87771335D01*
X171615000Y-87488665D01*
X171559853Y-87211426D01*
X171451680Y-86950273D01*
X171294637Y-86715241D01*
X171094759Y-86515363D01*
X170859727Y-86358320D01*
X170598574Y-86250147D01*
X170321335Y-86195000D01*
X170038665Y-86195000D01*
X169761426Y-86250147D01*
X169500273Y-86358320D01*
X169265241Y-86515363D01*
X169065363Y-86715241D01*
X168961957Y-86870000D01*
X168858043Y-86870000D01*
X168754637Y-86715241D01*
X168554759Y-86515363D01*
X168319727Y-86358320D01*
X168058574Y-86250147D01*
X167781335Y-86195000D01*
X167498665Y-86195000D01*
X167221426Y-86250147D01*
X166960273Y-86358320D01*
X166725241Y-86515363D01*
X166525363Y-86715241D01*
X166368320Y-86950273D01*
X166260147Y-87211426D01*
X166205000Y-87488665D01*
X161455000Y-87488665D01*
X161399853Y-87211426D01*
X161291680Y-86950273D01*
X161134637Y-86715241D01*
X160934759Y-86515363D01*
X160699727Y-86358320D01*
X160438574Y-86250147D01*
X160161335Y-86195000D01*
X159878665Y-86195000D01*
X159601426Y-86250147D01*
X159340273Y-86358320D01*
X159105241Y-86515363D01*
X158905363Y-86715241D01*
X158801957Y-86870000D01*
X158698043Y-86870000D01*
X158594637Y-86715241D01*
X158394759Y-86515363D01*
X158159727Y-86358320D01*
X157898574Y-86250147D01*
X157621335Y-86195000D01*
X157338665Y-86195000D01*
X157061426Y-86250147D01*
X156800273Y-86358320D01*
X156565241Y-86515363D01*
X156365363Y-86715241D01*
X156208320Y-86950273D01*
X156100147Y-87211426D01*
X156045000Y-87488665D01*
X154886136Y-87488665D01*
X159696114Y-82678688D01*
X159878665Y-82715000D01*
X160161335Y-82715000D01*
X160438574Y-82659853D01*
X160699727Y-82551680D01*
X160934759Y-82394637D01*
X161134637Y-82194759D01*
X161291680Y-81959727D01*
X161399853Y-81698574D01*
X161455000Y-81421335D01*
X161455000Y-81138665D01*
X166205000Y-81138665D01*
X166205000Y-81421335D01*
X166260147Y-81698574D01*
X166368320Y-81959727D01*
X166525363Y-82194759D01*
X166725241Y-82394637D01*
X166960273Y-82551680D01*
X167221426Y-82659853D01*
X167498665Y-82715000D01*
X167781335Y-82715000D01*
X168058574Y-82659853D01*
X168319727Y-82551680D01*
X168554759Y-82394637D01*
X168754637Y-82194759D01*
X168858043Y-82040000D01*
X168961957Y-82040000D01*
X169065363Y-82194759D01*
X169265241Y-82394637D01*
X169500273Y-82551680D01*
X169761426Y-82659853D01*
X170038665Y-82715000D01*
X170321335Y-82715000D01*
X170598574Y-82659853D01*
X170859727Y-82551680D01*
X171094759Y-82394637D01*
X171294637Y-82194759D01*
X171451680Y-81959727D01*
X171559853Y-81698574D01*
X171615000Y-81421335D01*
X171615000Y-81138665D01*
X171559853Y-80861426D01*
X171451680Y-80600273D01*
X171294637Y-80365241D01*
X171094759Y-80165363D01*
X170859727Y-80008320D01*
X170598574Y-79900147D01*
X170321335Y-79845000D01*
X170038665Y-79845000D01*
X169761426Y-79900147D01*
X169500273Y-80008320D01*
X169265241Y-80165363D01*
X169065363Y-80365241D01*
X168961957Y-80520000D01*
X168858043Y-80520000D01*
X168754637Y-80365241D01*
X168554759Y-80165363D01*
X168319727Y-80008320D01*
X168058574Y-79900147D01*
X167781335Y-79845000D01*
X167498665Y-79845000D01*
X167221426Y-79900147D01*
X166960273Y-80008320D01*
X166725241Y-80165363D01*
X166525363Y-80365241D01*
X166368320Y-80600273D01*
X166260147Y-80861426D01*
X166205000Y-81138665D01*
X161455000Y-81138665D01*
X161399853Y-80861426D01*
X161291680Y-80600273D01*
X161134637Y-80365241D01*
X160934759Y-80165363D01*
X160699727Y-80008320D01*
X160438574Y-79900147D01*
X160161335Y-79845000D01*
X159878665Y-79845000D01*
X159601426Y-79900147D01*
X159340273Y-80008320D01*
X159105241Y-80165363D01*
X158905363Y-80365241D01*
X158748320Y-80600273D01*
X158743643Y-80611565D01*
X158711037Y-80542580D01*
X158543519Y-80316586D01*
X158335131Y-80127615D01*
X158093881Y-79982930D01*
X157829040Y-79888091D01*
X157607000Y-80009376D01*
X157607000Y-81153000D01*
X157627000Y-81153000D01*
X157627000Y-81407000D01*
X157607000Y-81407000D01*
X157607000Y-82550624D01*
X157650703Y-82574496D01*
X153355199Y-86870000D01*
X151078043Y-86870000D01*
X150974637Y-86715241D01*
X150774759Y-86515363D01*
X150539727Y-86358320D01*
X150278574Y-86250147D01*
X150001335Y-86195000D01*
X149718665Y-86195000D01*
X149441426Y-86250147D01*
X149180273Y-86358320D01*
X148945241Y-86515363D01*
X148745363Y-86715241D01*
X148641957Y-86870000D01*
X146087322Y-86870000D01*
X146049999Y-86866324D01*
X146012676Y-86870000D01*
X146012667Y-86870000D01*
X145901014Y-86880997D01*
X145757753Y-86924454D01*
X145625724Y-86995026D01*
X145540000Y-87065378D01*
X145540000Y-83857322D01*
X145543676Y-83819999D01*
X145540000Y-83782676D01*
X145540000Y-83782667D01*
X145529003Y-83671014D01*
X145485546Y-83527753D01*
X145414974Y-83395724D01*
X145320001Y-83279999D01*
X145291003Y-83256201D01*
X144749802Y-82715000D01*
X144921335Y-82715000D01*
X145198574Y-82659853D01*
X145459727Y-82551680D01*
X145694759Y-82394637D01*
X145894637Y-82194759D01*
X145998043Y-82040000D01*
X148641957Y-82040000D01*
X148745363Y-82194759D01*
X148945241Y-82394637D01*
X149180273Y-82551680D01*
X149441426Y-82659853D01*
X149718665Y-82715000D01*
X150001335Y-82715000D01*
X150278574Y-82659853D01*
X150539727Y-82551680D01*
X150774759Y-82394637D01*
X150974637Y-82194759D01*
X151131680Y-81959727D01*
X151239853Y-81698574D01*
X151253684Y-81629039D01*
X156088096Y-81629039D01*
X156128754Y-81763087D01*
X156248963Y-82017420D01*
X156416481Y-82243414D01*
X156624869Y-82432385D01*
X156866119Y-82577070D01*
X157130960Y-82671909D01*
X157353000Y-82550624D01*
X157353000Y-81407000D01*
X156210085Y-81407000D01*
X156088096Y-81629039D01*
X151253684Y-81629039D01*
X151295000Y-81421335D01*
X151295000Y-81138665D01*
X151253685Y-80930961D01*
X156088096Y-80930961D01*
X156210085Y-81153000D01*
X157353000Y-81153000D01*
X157353000Y-80009376D01*
X157130960Y-79888091D01*
X156866119Y-79982930D01*
X156624869Y-80127615D01*
X156416481Y-80316586D01*
X156248963Y-80542580D01*
X156128754Y-80796913D01*
X156088096Y-80930961D01*
X151253685Y-80930961D01*
X151239853Y-80861426D01*
X151131680Y-80600273D01*
X150974637Y-80365241D01*
X150774759Y-80165363D01*
X150539727Y-80008320D01*
X150278574Y-79900147D01*
X150001335Y-79845000D01*
X149718665Y-79845000D01*
X149441426Y-79900147D01*
X149180273Y-80008320D01*
X148945241Y-80165363D01*
X148745363Y-80365241D01*
X148641957Y-80520000D01*
X145998043Y-80520000D01*
X145894637Y-80365241D01*
X145694759Y-80165363D01*
X145459727Y-80008320D01*
X145198574Y-79900147D01*
X144921335Y-79845000D01*
X144638665Y-79845000D01*
X144361426Y-79900147D01*
X144100273Y-80008320D01*
X143865241Y-80165363D01*
X143665363Y-80365241D01*
X143508320Y-80600273D01*
X143400147Y-80861426D01*
X143345000Y-81138665D01*
X143345000Y-81310198D01*
X138598072Y-76563271D01*
X138598072Y-76422874D01*
X138886200Y-76711002D01*
X138909999Y-76740001D01*
X138938997Y-76763799D01*
X139025723Y-76834974D01*
X139153759Y-76903411D01*
X139157753Y-76905546D01*
X139301014Y-76949003D01*
X139412667Y-76960000D01*
X139412676Y-76960000D01*
X139449999Y-76963676D01*
X139487322Y-76960000D01*
X143561957Y-76960000D01*
X143665363Y-77114759D01*
X143865241Y-77314637D01*
X144100273Y-77471680D01*
X144361426Y-77579853D01*
X144638665Y-77635000D01*
X144921335Y-77635000D01*
X145198574Y-77579853D01*
X145459727Y-77471680D01*
X145694759Y-77314637D01*
X145894637Y-77114759D01*
X146051680Y-76879727D01*
X146159853Y-76618574D01*
X146215000Y-76341335D01*
X146215000Y-76058665D01*
X146178688Y-75876114D01*
X146364802Y-75690000D01*
X148641957Y-75690000D01*
X148745363Y-75844759D01*
X148945241Y-76044637D01*
X149180273Y-76201680D01*
X149441426Y-76309853D01*
X149718665Y-76365000D01*
X150001335Y-76365000D01*
X150278574Y-76309853D01*
X150539727Y-76201680D01*
X150774759Y-76044637D01*
X150974637Y-75844759D01*
X151078043Y-75690000D01*
X153632678Y-75690000D01*
X153670000Y-75693676D01*
X153707322Y-75690000D01*
X153707333Y-75690000D01*
X153818986Y-75679003D01*
X153962247Y-75635546D01*
X154094276Y-75564974D01*
X154210001Y-75470001D01*
X154233804Y-75440997D01*
X154886136Y-74788665D01*
X156045000Y-74788665D01*
X156045000Y-75071335D01*
X156100147Y-75348574D01*
X156208320Y-75609727D01*
X156365363Y-75844759D01*
X156565241Y-76044637D01*
X156800273Y-76201680D01*
X157061426Y-76309853D01*
X157338665Y-76365000D01*
X157621335Y-76365000D01*
X157898574Y-76309853D01*
X158159727Y-76201680D01*
X158394759Y-76044637D01*
X158594637Y-75844759D01*
X158698043Y-75690000D01*
X158801957Y-75690000D01*
X158905363Y-75844759D01*
X159105241Y-76044637D01*
X159340273Y-76201680D01*
X159601426Y-76309853D01*
X159878665Y-76365000D01*
X160161335Y-76365000D01*
X160438574Y-76309853D01*
X160699727Y-76201680D01*
X160934759Y-76044637D01*
X161134637Y-75844759D01*
X161291680Y-75609727D01*
X161399853Y-75348574D01*
X161455000Y-75071335D01*
X161455000Y-74788665D01*
X166205000Y-74788665D01*
X166205000Y-75071335D01*
X166260147Y-75348574D01*
X166368320Y-75609727D01*
X166525363Y-75844759D01*
X166725241Y-76044637D01*
X166960273Y-76201680D01*
X167221426Y-76309853D01*
X167498665Y-76365000D01*
X167781335Y-76365000D01*
X168058574Y-76309853D01*
X168319727Y-76201680D01*
X168554759Y-76044637D01*
X168754637Y-75844759D01*
X168858043Y-75690000D01*
X168961957Y-75690000D01*
X169065363Y-75844759D01*
X169265241Y-76044637D01*
X169500273Y-76201680D01*
X169761426Y-76309853D01*
X170038665Y-76365000D01*
X170321335Y-76365000D01*
X170598574Y-76309853D01*
X170859727Y-76201680D01*
X171094759Y-76044637D01*
X171294637Y-75844759D01*
X171451680Y-75609727D01*
X171559853Y-75348574D01*
X171615000Y-75071335D01*
X171615000Y-74788665D01*
X171559853Y-74511426D01*
X171451680Y-74250273D01*
X171294637Y-74015241D01*
X171094759Y-73815363D01*
X170859727Y-73658320D01*
X170598574Y-73550147D01*
X170321335Y-73495000D01*
X170038665Y-73495000D01*
X169761426Y-73550147D01*
X169500273Y-73658320D01*
X169265241Y-73815363D01*
X169065363Y-74015241D01*
X168961957Y-74170000D01*
X168858043Y-74170000D01*
X168754637Y-74015241D01*
X168554759Y-73815363D01*
X168319727Y-73658320D01*
X168058574Y-73550147D01*
X167781335Y-73495000D01*
X167498665Y-73495000D01*
X167221426Y-73550147D01*
X166960273Y-73658320D01*
X166725241Y-73815363D01*
X166525363Y-74015241D01*
X166368320Y-74250273D01*
X166260147Y-74511426D01*
X166205000Y-74788665D01*
X161455000Y-74788665D01*
X161399853Y-74511426D01*
X161291680Y-74250273D01*
X161134637Y-74015241D01*
X160934759Y-73815363D01*
X160699727Y-73658320D01*
X160438574Y-73550147D01*
X160161335Y-73495000D01*
X159878665Y-73495000D01*
X159601426Y-73550147D01*
X159340273Y-73658320D01*
X159105241Y-73815363D01*
X158905363Y-74015241D01*
X158801957Y-74170000D01*
X158698043Y-74170000D01*
X158594637Y-74015241D01*
X158394759Y-73815363D01*
X158159727Y-73658320D01*
X157898574Y-73550147D01*
X157621335Y-73495000D01*
X157338665Y-73495000D01*
X157061426Y-73550147D01*
X156800273Y-73658320D01*
X156565241Y-73815363D01*
X156365363Y-74015241D01*
X156208320Y-74250273D01*
X156100147Y-74511426D01*
X156045000Y-74788665D01*
X154886136Y-74788665D01*
X159696114Y-69978688D01*
X159878665Y-70015000D01*
X160161335Y-70015000D01*
X160438574Y-69959853D01*
X160699727Y-69851680D01*
X160934759Y-69694637D01*
X161134637Y-69494759D01*
X161291680Y-69259727D01*
X161399853Y-68998574D01*
X161455000Y-68721335D01*
X161455000Y-68438665D01*
X161399853Y-68161426D01*
X161291680Y-67900273D01*
X161134637Y-67665241D01*
X160934759Y-67465363D01*
X160699727Y-67308320D01*
X160438574Y-67200147D01*
X160161335Y-67145000D01*
X159878665Y-67145000D01*
X159601426Y-67200147D01*
X159340273Y-67308320D01*
X159105241Y-67465363D01*
X158905363Y-67665241D01*
X158748320Y-67900273D01*
X158743643Y-67911565D01*
X158711037Y-67842580D01*
X158543519Y-67616586D01*
X158335131Y-67427615D01*
X158093881Y-67282930D01*
X157829040Y-67188091D01*
X157607000Y-67309376D01*
X157607000Y-68453000D01*
X157627000Y-68453000D01*
X157627000Y-68707000D01*
X157607000Y-68707000D01*
X157607000Y-69850624D01*
X157650703Y-69874496D01*
X153355199Y-74170000D01*
X151078043Y-74170000D01*
X150974637Y-74015241D01*
X150774759Y-73815363D01*
X150539727Y-73658320D01*
X150278574Y-73550147D01*
X150001335Y-73495000D01*
X149718665Y-73495000D01*
X149441426Y-73550147D01*
X149180273Y-73658320D01*
X148945241Y-73815363D01*
X148745363Y-74015241D01*
X148641957Y-74170000D01*
X146087322Y-74170000D01*
X146049999Y-74166324D01*
X146012676Y-74170000D01*
X146012667Y-74170000D01*
X145901014Y-74180997D01*
X145757753Y-74224454D01*
X145625724Y-74295026D01*
X145509999Y-74389999D01*
X145486201Y-74418997D01*
X145103886Y-74801312D01*
X144921335Y-74765000D01*
X144638665Y-74765000D01*
X144361426Y-74820147D01*
X144100273Y-74928320D01*
X143865241Y-75085363D01*
X143665363Y-75285241D01*
X143561957Y-75440000D01*
X139764802Y-75440000D01*
X138558688Y-74233886D01*
X138595000Y-74051335D01*
X138595000Y-73768665D01*
X138539853Y-73491426D01*
X138431680Y-73230273D01*
X138274637Y-72995241D01*
X138074759Y-72795363D01*
X138029317Y-72765000D01*
X138074759Y-72734637D01*
X138274637Y-72534759D01*
X138431680Y-72299727D01*
X138539853Y-72038574D01*
X138595000Y-71761335D01*
X138595000Y-71478665D01*
X138558688Y-71296113D01*
X141416136Y-68438665D01*
X143345000Y-68438665D01*
X143345000Y-68721335D01*
X143400147Y-68998574D01*
X143508320Y-69259727D01*
X143665363Y-69494759D01*
X143865241Y-69694637D01*
X144100273Y-69851680D01*
X144361426Y-69959853D01*
X144638665Y-70015000D01*
X144921335Y-70015000D01*
X145198574Y-69959853D01*
X145459727Y-69851680D01*
X145694759Y-69694637D01*
X145894637Y-69494759D01*
X145998043Y-69340000D01*
X148641957Y-69340000D01*
X148745363Y-69494759D01*
X148945241Y-69694637D01*
X149180273Y-69851680D01*
X149441426Y-69959853D01*
X149718665Y-70015000D01*
X150001335Y-70015000D01*
X150278574Y-69959853D01*
X150539727Y-69851680D01*
X150774759Y-69694637D01*
X150974637Y-69494759D01*
X151131680Y-69259727D01*
X151239853Y-68998574D01*
X151253684Y-68929039D01*
X156088096Y-68929039D01*
X156128754Y-69063087D01*
X156248963Y-69317420D01*
X156416481Y-69543414D01*
X156624869Y-69732385D01*
X156866119Y-69877070D01*
X157130960Y-69971909D01*
X157353000Y-69850624D01*
X157353000Y-68707000D01*
X156210085Y-68707000D01*
X156088096Y-68929039D01*
X151253684Y-68929039D01*
X151295000Y-68721335D01*
X151295000Y-68438665D01*
X151253685Y-68230961D01*
X156088096Y-68230961D01*
X156210085Y-68453000D01*
X157353000Y-68453000D01*
X157353000Y-67309376D01*
X157130960Y-67188091D01*
X156866119Y-67282930D01*
X156624869Y-67427615D01*
X156416481Y-67616586D01*
X156248963Y-67842580D01*
X156128754Y-68096913D01*
X156088096Y-68230961D01*
X151253685Y-68230961D01*
X151239853Y-68161426D01*
X151131680Y-67900273D01*
X150974637Y-67665241D01*
X150774759Y-67465363D01*
X150539727Y-67308320D01*
X150278574Y-67200147D01*
X150001335Y-67145000D01*
X149718665Y-67145000D01*
X149441426Y-67200147D01*
X149180273Y-67308320D01*
X148945241Y-67465363D01*
X148745363Y-67665241D01*
X148641957Y-67820000D01*
X145998043Y-67820000D01*
X145894637Y-67665241D01*
X145694759Y-67465363D01*
X145459727Y-67308320D01*
X145198574Y-67200147D01*
X144921335Y-67145000D01*
X144638665Y-67145000D01*
X144361426Y-67200147D01*
X144100273Y-67308320D01*
X143865241Y-67465363D01*
X143665363Y-67665241D01*
X143508320Y-67900273D01*
X143400147Y-68161426D01*
X143345000Y-68438665D01*
X141416136Y-68438665D01*
X145291003Y-64563799D01*
X145320001Y-64540001D01*
X145414974Y-64424276D01*
X145485546Y-64292247D01*
X145529003Y-64148986D01*
X145540000Y-64037333D01*
X145540000Y-64037324D01*
X145543676Y-64000001D01*
X145540000Y-63962678D01*
X145540000Y-63448043D01*
X145694759Y-63344637D01*
X145894637Y-63144759D01*
X145998043Y-62990000D01*
X148641957Y-62990000D01*
X148745363Y-63144759D01*
X148945241Y-63344637D01*
X149180273Y-63501680D01*
X149441426Y-63609853D01*
X149718665Y-63665000D01*
X150001335Y-63665000D01*
X150278574Y-63609853D01*
X150539727Y-63501680D01*
X150774759Y-63344637D01*
X150974637Y-63144759D01*
X151131680Y-62909727D01*
X151239853Y-62648574D01*
X151295000Y-62371335D01*
X151295000Y-62088665D01*
X156045000Y-62088665D01*
X156045000Y-62371335D01*
X156100147Y-62648574D01*
X156208320Y-62909727D01*
X156365363Y-63144759D01*
X156565241Y-63344637D01*
X156800273Y-63501680D01*
X157061426Y-63609853D01*
X157338665Y-63665000D01*
X157621335Y-63665000D01*
X157898574Y-63609853D01*
X158159727Y-63501680D01*
X158394759Y-63344637D01*
X158594637Y-63144759D01*
X158698043Y-62990000D01*
X158801957Y-62990000D01*
X158905363Y-63144759D01*
X159105241Y-63344637D01*
X159340273Y-63501680D01*
X159601426Y-63609853D01*
X159878665Y-63665000D01*
X160161335Y-63665000D01*
X160438574Y-63609853D01*
X160699727Y-63501680D01*
X160934759Y-63344637D01*
X161134637Y-63144759D01*
X161291680Y-62909727D01*
X161399853Y-62648574D01*
X161455000Y-62371335D01*
X161455000Y-62088665D01*
X161399853Y-61811426D01*
X161291680Y-61550273D01*
X161134637Y-61315241D01*
X160934759Y-61115363D01*
X160699727Y-60958320D01*
X160438574Y-60850147D01*
X160161335Y-60795000D01*
X159878665Y-60795000D01*
X159601426Y-60850147D01*
X159340273Y-60958320D01*
X159105241Y-61115363D01*
X158905363Y-61315241D01*
X158801957Y-61470000D01*
X158698043Y-61470000D01*
X158594637Y-61315241D01*
X158394759Y-61115363D01*
X158159727Y-60958320D01*
X157898574Y-60850147D01*
X157621335Y-60795000D01*
X157338665Y-60795000D01*
X157061426Y-60850147D01*
X156800273Y-60958320D01*
X156565241Y-61115363D01*
X156365363Y-61315241D01*
X156208320Y-61550273D01*
X156100147Y-61811426D01*
X156045000Y-62088665D01*
X151295000Y-62088665D01*
X151239853Y-61811426D01*
X151131680Y-61550273D01*
X150974637Y-61315241D01*
X150846414Y-61187018D01*
X156045000Y-55988432D01*
X156045000Y-56007002D01*
X156210084Y-56007002D01*
X156088096Y-56229039D01*
X156128754Y-56363087D01*
X156248963Y-56617420D01*
X156416481Y-56843414D01*
X156624869Y-57032385D01*
X156866119Y-57177070D01*
X157130960Y-57271909D01*
X157353000Y-57150624D01*
X157353000Y-56007000D01*
X157333000Y-56007000D01*
X157333000Y-55753000D01*
X157353000Y-55753000D01*
X157353000Y-55733000D01*
X157607000Y-55733000D01*
X157607000Y-55753000D01*
X157627000Y-55753000D01*
X157627000Y-56007000D01*
X157607000Y-56007000D01*
X157607000Y-57150624D01*
X157829040Y-57271909D01*
X158093881Y-57177070D01*
X158335131Y-57032385D01*
X158543519Y-56843414D01*
X158711037Y-56617420D01*
X158743643Y-56548435D01*
X158748320Y-56559727D01*
X158905363Y-56794759D01*
X159105241Y-56994637D01*
X159340273Y-57151680D01*
X159601426Y-57259853D01*
X159878665Y-57315000D01*
X160161335Y-57315000D01*
X160385001Y-57270509D01*
X160385001Y-57552678D01*
X160381325Y-57590001D01*
X160385001Y-57627323D01*
X160385001Y-57627333D01*
X160395998Y-57738986D01*
X160439455Y-57882247D01*
X160510027Y-58014277D01*
X160549872Y-58062827D01*
X160605000Y-58130002D01*
X160634004Y-58153805D01*
X169704093Y-67223895D01*
X169500273Y-67308320D01*
X169265241Y-67465363D01*
X169065363Y-67665241D01*
X168961957Y-67820000D01*
X168858043Y-67820000D01*
X168754637Y-67665241D01*
X168554759Y-67465363D01*
X168319727Y-67308320D01*
X168058574Y-67200147D01*
X167781335Y-67145000D01*
X167498665Y-67145000D01*
X167221426Y-67200147D01*
X166960273Y-67308320D01*
X166725241Y-67465363D01*
X166525363Y-67665241D01*
X166368320Y-67900273D01*
X166260147Y-68161426D01*
X166205000Y-68438665D01*
X166205000Y-68721335D01*
X166260147Y-68998574D01*
X166368320Y-69259727D01*
X166525363Y-69494759D01*
X166725241Y-69694637D01*
X166960273Y-69851680D01*
X167221426Y-69959853D01*
X167498665Y-70015000D01*
X167781335Y-70015000D01*
X168058574Y-69959853D01*
X168319727Y-69851680D01*
X168554759Y-69694637D01*
X168754637Y-69494759D01*
X168858043Y-69340000D01*
X168961957Y-69340000D01*
X169065363Y-69494759D01*
X169265241Y-69694637D01*
X169500273Y-69851680D01*
X169761426Y-69959853D01*
X170038665Y-70015000D01*
X170321335Y-70015000D01*
X170598574Y-69959853D01*
X170859727Y-69851680D01*
X171094759Y-69694637D01*
X171294637Y-69494759D01*
X171451680Y-69259727D01*
X171536105Y-69055907D01*
X172936199Y-70456001D01*
X172959998Y-70485000D01*
X173075723Y-70579973D01*
X173207752Y-70650545D01*
X173351013Y-70694002D01*
X173462666Y-70704999D01*
X173462674Y-70704999D01*
X173499999Y-70708675D01*
X173537324Y-70704999D01*
X179680200Y-70704999D01*
X177289003Y-73096196D01*
X177259999Y-73119999D01*
X177204871Y-73187174D01*
X177165026Y-73235724D01*
X177105974Y-73346201D01*
X177094454Y-73367754D01*
X177050997Y-73511015D01*
X177040000Y-73622668D01*
X177040000Y-73622678D01*
X177036324Y-73660000D01*
X177040000Y-73697323D01*
X177040000Y-73711957D01*
X176885241Y-73815363D01*
X176685363Y-74015241D01*
X176528320Y-74250273D01*
X176420147Y-74511426D01*
X176365000Y-74788665D01*
X176365000Y-75071335D01*
X176420147Y-75348574D01*
X176528320Y-75609727D01*
X176685363Y-75844759D01*
X176885241Y-76044637D01*
X177120273Y-76201680D01*
X177381426Y-76309853D01*
X177658665Y-76365000D01*
X177941335Y-76365000D01*
X178165001Y-76320509D01*
X178165002Y-79840196D01*
X178123886Y-79881312D01*
X177941335Y-79845000D01*
X177658665Y-79845000D01*
X177381426Y-79900147D01*
X177120273Y-80008320D01*
X176885241Y-80165363D01*
X176685363Y-80365241D01*
X176528320Y-80600273D01*
X176420147Y-80861426D01*
X176365000Y-81138665D01*
X176365000Y-81421335D01*
X176420147Y-81698574D01*
X176528320Y-81959727D01*
X176685363Y-82194759D01*
X176885241Y-82394637D01*
X177120273Y-82551680D01*
X177287559Y-82620972D01*
X177260000Y-82643589D01*
X177236202Y-82672587D01*
X177236201Y-82672588D01*
X177165026Y-82759314D01*
X177094454Y-82891344D01*
X177050998Y-83034605D01*
X177036324Y-83183590D01*
X177040001Y-83220922D01*
X177040000Y-86411956D01*
X176885241Y-86515363D01*
X176685363Y-86715241D01*
X176528320Y-86950273D01*
X176420147Y-87211426D01*
X176365000Y-87488665D01*
X176365000Y-87771335D01*
X176420147Y-88048574D01*
X176528320Y-88309727D01*
X176685363Y-88544759D01*
X176885241Y-88744637D01*
X177120273Y-88901680D01*
X177381426Y-89009853D01*
X177658665Y-89065000D01*
X177941335Y-89065000D01*
X178218574Y-89009853D01*
X178479727Y-88901680D01*
X178714759Y-88744637D01*
X178914637Y-88544759D01*
X179071680Y-88309727D01*
X179179853Y-88048574D01*
X179235000Y-87771335D01*
X179235000Y-87488665D01*
X179179853Y-87211426D01*
X179071680Y-86950273D01*
X178914637Y-86715241D01*
X178714759Y-86515363D01*
X178560000Y-86411957D01*
X178560000Y-83673740D01*
X181395000Y-83673740D01*
X181395000Y-83966260D01*
X181452068Y-84253158D01*
X181564010Y-84523411D01*
X181726525Y-84766632D01*
X181933368Y-84973475D01*
X182176589Y-85135990D01*
X182446842Y-85247932D01*
X182733740Y-85305000D01*
X183026260Y-85305000D01*
X183313158Y-85247932D01*
X183583411Y-85135990D01*
X183826632Y-84973475D01*
X184033475Y-84766632D01*
X184195990Y-84523411D01*
X184307932Y-84253158D01*
X184365000Y-83966260D01*
X184365000Y-83673740D01*
X184307932Y-83386842D01*
X184195990Y-83116589D01*
X184033475Y-82873368D01*
X183826632Y-82666525D01*
X183644466Y-82544805D01*
X183761355Y-82475178D01*
X183977588Y-82280269D01*
X184151641Y-82046920D01*
X184276825Y-81784099D01*
X184321476Y-81636890D01*
X184200155Y-81407000D01*
X183007000Y-81407000D01*
X183007000Y-81427000D01*
X182753000Y-81427000D01*
X182753000Y-81407000D01*
X181559845Y-81407000D01*
X181438524Y-81636890D01*
X181483175Y-81784099D01*
X181608359Y-82046920D01*
X181782412Y-82280269D01*
X181998645Y-82475178D01*
X182115534Y-82544805D01*
X181933368Y-82666525D01*
X181726525Y-82873368D01*
X181564010Y-83116589D01*
X181452068Y-83386842D01*
X181395000Y-83673740D01*
X178560000Y-83673740D01*
X178560000Y-83498391D01*
X182072171Y-79986220D01*
X182115534Y-80015195D01*
X181998645Y-80084822D01*
X181782412Y-80279731D01*
X181608359Y-80513080D01*
X181483175Y-80775901D01*
X181438524Y-80923110D01*
X181559845Y-81153000D01*
X182753000Y-81153000D01*
X182753000Y-81133000D01*
X183007000Y-81133000D01*
X183007000Y-81153000D01*
X184200155Y-81153000D01*
X184321476Y-80923110D01*
X184276825Y-80775901D01*
X184151641Y-80513080D01*
X183977588Y-80279731D01*
X183761355Y-80084822D01*
X183644466Y-80015195D01*
X183826632Y-79893475D01*
X184033475Y-79686632D01*
X184195990Y-79443411D01*
X184307932Y-79173158D01*
X184365000Y-78886260D01*
X184365000Y-78593740D01*
X184321210Y-78373592D01*
X185016013Y-77678789D01*
X185045011Y-77654991D01*
X185139984Y-77539266D01*
X185210556Y-77407237D01*
X185254013Y-77263976D01*
X185265010Y-77152323D01*
X185265010Y-77152314D01*
X185268686Y-77114991D01*
X185265010Y-77077668D01*
X185265010Y-65963330D01*
X185268686Y-65926007D01*
X185265010Y-65888684D01*
X185265010Y-65888675D01*
X185254013Y-65777022D01*
X185210556Y-65633761D01*
X185139984Y-65501732D01*
X185045011Y-65386007D01*
X185016014Y-65362210D01*
X184060295Y-64406492D01*
X184195990Y-64203411D01*
X184307932Y-63933158D01*
X184365000Y-63646260D01*
X184365000Y-63353740D01*
X184307932Y-63066842D01*
X184195990Y-62796589D01*
X184033475Y-62553368D01*
X183901620Y-62421513D01*
X183974180Y-62399502D01*
X184084494Y-62340537D01*
X184181185Y-62261185D01*
X184260537Y-62164494D01*
X184319502Y-62054180D01*
X184355812Y-61934482D01*
X184368072Y-61810000D01*
X184368072Y-60110000D01*
X184355812Y-59985518D01*
X184319502Y-59865820D01*
X184260537Y-59755506D01*
X184181185Y-59658815D01*
X184084494Y-59579463D01*
X183974180Y-59520498D01*
X183854482Y-59484188D01*
X183730000Y-59471928D01*
X182466730Y-59471928D01*
X179198688Y-56203887D01*
X179235000Y-56021335D01*
X179235000Y-55738665D01*
X179179853Y-55461426D01*
X179071680Y-55200273D01*
X178914637Y-54965241D01*
X178714759Y-54765363D01*
X178479727Y-54608320D01*
X178218574Y-54500147D01*
X177941335Y-54445000D01*
X177658665Y-54445000D01*
X177381426Y-54500147D01*
X177120273Y-54608320D01*
X176885241Y-54765363D01*
X176685363Y-54965241D01*
X176528320Y-55200273D01*
X176420147Y-55461426D01*
X176365000Y-55738665D01*
X176365000Y-56021335D01*
X176420147Y-56298574D01*
X176528320Y-56559727D01*
X176685363Y-56794759D01*
X176885241Y-56994637D01*
X177120273Y-57151680D01*
X177381426Y-57259853D01*
X177658665Y-57315000D01*
X177941335Y-57315000D01*
X178123887Y-57278688D01*
X181391928Y-60546730D01*
X181391928Y-61810000D01*
X181404188Y-61934482D01*
X181440498Y-62054180D01*
X181499463Y-62164494D01*
X181578815Y-62261185D01*
X181675506Y-62340537D01*
X181785820Y-62399502D01*
X181858380Y-62421513D01*
X181726525Y-62553368D01*
X181601822Y-62740000D01*
X179384802Y-62740000D01*
X179198688Y-62553886D01*
X179235000Y-62371335D01*
X179235000Y-62088665D01*
X179179853Y-61811426D01*
X179071680Y-61550273D01*
X178914637Y-61315241D01*
X178714759Y-61115363D01*
X178479727Y-60958320D01*
X178218574Y-60850147D01*
X177941335Y-60795000D01*
X177658665Y-60795000D01*
X177381426Y-60850147D01*
X177120273Y-60958320D01*
X176885241Y-61115363D01*
X176685363Y-61315241D01*
X176528320Y-61550273D01*
X176420147Y-61811426D01*
X176365000Y-62088665D01*
X176365000Y-62371335D01*
X176420147Y-62648574D01*
X176528320Y-62909727D01*
X176685363Y-63144759D01*
X176885241Y-63344637D01*
X177120273Y-63501680D01*
X177381426Y-63609853D01*
X177658665Y-63665000D01*
X177941335Y-63665000D01*
X178123886Y-63628688D01*
X178506201Y-64011003D01*
X178529999Y-64040001D01*
X178617607Y-64111899D01*
X178576013Y-64115996D01*
X178432752Y-64159453D01*
X178300723Y-64230025D01*
X178184998Y-64324998D01*
X178161200Y-64353996D01*
X177635198Y-64879999D01*
X177573060Y-64879999D01*
X177373101Y-64919773D01*
X177184743Y-64997794D01*
X177015225Y-65111062D01*
X176871062Y-65255225D01*
X176757794Y-65424743D01*
X176679773Y-65613101D01*
X176639999Y-65813060D01*
X176639999Y-66016938D01*
X176679773Y-66216897D01*
X176757794Y-66405255D01*
X176871062Y-66574773D01*
X177015225Y-66718936D01*
X177184743Y-66832204D01*
X177373101Y-66910225D01*
X177573060Y-66949999D01*
X177776938Y-66949999D01*
X177976897Y-66910225D01*
X178165255Y-66832204D01*
X178334773Y-66718936D01*
X178478936Y-66574773D01*
X178592204Y-66405255D01*
X178670225Y-66216897D01*
X178709999Y-66016938D01*
X178709999Y-65954800D01*
X179039801Y-65624999D01*
X179680198Y-65624999D01*
X178123886Y-67181312D01*
X177941335Y-67145000D01*
X177658665Y-67145000D01*
X177381426Y-67200147D01*
X177120273Y-67308320D01*
X176885241Y-67465363D01*
X176685363Y-67665241D01*
X176528320Y-67900273D01*
X176420147Y-68161426D01*
X176365000Y-68438665D01*
X176365000Y-68721335D01*
X176420147Y-68998574D01*
X176497367Y-69184999D01*
X173814801Y-69184999D01*
X168186617Y-63556816D01*
X168319727Y-63501680D01*
X168554759Y-63344637D01*
X168754637Y-63144759D01*
X168858043Y-62990000D01*
X168961957Y-62990000D01*
X169065363Y-63144759D01*
X169265241Y-63344637D01*
X169500273Y-63501680D01*
X169761426Y-63609853D01*
X170038665Y-63665000D01*
X170321335Y-63665000D01*
X170598574Y-63609853D01*
X170859727Y-63501680D01*
X171094759Y-63344637D01*
X171294637Y-63144759D01*
X171451680Y-62909727D01*
X171559853Y-62648574D01*
X171615000Y-62371335D01*
X171615000Y-62088665D01*
X171559853Y-61811426D01*
X171451680Y-61550273D01*
X171294637Y-61315241D01*
X171094759Y-61115363D01*
X170859727Y-60958320D01*
X170598574Y-60850147D01*
X170321335Y-60795000D01*
X170038665Y-60795000D01*
X169761426Y-60850147D01*
X169500273Y-60958320D01*
X169265241Y-61115363D01*
X169065363Y-61315241D01*
X168961957Y-61470000D01*
X168858043Y-61470000D01*
X168754637Y-61315241D01*
X168554759Y-61115363D01*
X168319727Y-60958320D01*
X168058574Y-60850147D01*
X167781335Y-60795000D01*
X167498665Y-60795000D01*
X167221426Y-60850147D01*
X166960273Y-60958320D01*
X166725241Y-61115363D01*
X166525363Y-61315241D01*
X166368320Y-61550273D01*
X166313184Y-61683383D01*
X161905001Y-57275200D01*
X161905001Y-55738665D01*
X166205000Y-55738665D01*
X166205000Y-56021335D01*
X166260147Y-56298574D01*
X166368320Y-56559727D01*
X166525363Y-56794759D01*
X166725241Y-56994637D01*
X166960273Y-57151680D01*
X167221426Y-57259853D01*
X167498665Y-57315000D01*
X167781335Y-57315000D01*
X168058574Y-57259853D01*
X168319727Y-57151680D01*
X168554759Y-56994637D01*
X168754637Y-56794759D01*
X168858043Y-56640000D01*
X168961957Y-56640000D01*
X169065363Y-56794759D01*
X169265241Y-56994637D01*
X169500273Y-57151680D01*
X169761426Y-57259853D01*
X170038665Y-57315000D01*
X170321335Y-57315000D01*
X170598574Y-57259853D01*
X170859727Y-57151680D01*
X171094759Y-56994637D01*
X171294637Y-56794759D01*
X171451680Y-56559727D01*
X171559853Y-56298574D01*
X171615000Y-56021335D01*
X171615000Y-55738665D01*
X171559853Y-55461426D01*
X171451680Y-55200273D01*
X171294637Y-54965241D01*
X171094759Y-54765363D01*
X170859727Y-54608320D01*
X170598574Y-54500147D01*
X170321335Y-54445000D01*
X170038665Y-54445000D01*
X169761426Y-54500147D01*
X169500273Y-54608320D01*
X169265241Y-54765363D01*
X169065363Y-54965241D01*
X168961957Y-55120000D01*
X168858043Y-55120000D01*
X168754637Y-54965241D01*
X168554759Y-54765363D01*
X168319727Y-54608320D01*
X168058574Y-54500147D01*
X167781335Y-54445000D01*
X167498665Y-54445000D01*
X167221426Y-54500147D01*
X166960273Y-54608320D01*
X166725241Y-54765363D01*
X166525363Y-54965241D01*
X166368320Y-55200273D01*
X166260147Y-55461426D01*
X166205000Y-55738665D01*
X161905001Y-55738665D01*
X161905001Y-55377321D01*
X161908677Y-55339998D01*
X161905001Y-55302675D01*
X161905001Y-55302666D01*
X161894004Y-55191013D01*
X161850547Y-55047752D01*
X161779975Y-54915723D01*
X161685002Y-54799998D01*
X161656004Y-54776200D01*
X160673795Y-53793991D01*
X160649992Y-53764988D01*
X160534267Y-53670015D01*
X160402238Y-53599443D01*
X160258977Y-53555986D01*
X160147324Y-53544989D01*
X160147313Y-53544989D01*
X160109991Y-53541313D01*
X160072669Y-53544989D01*
X156054553Y-53544989D01*
X156017230Y-53541313D01*
X155979907Y-53544989D01*
X155979898Y-53544989D01*
X155868245Y-53555986D01*
X155724984Y-53599443D01*
X155592955Y-53670015D01*
X155592953Y-53670016D01*
X155592954Y-53670016D01*
X155506227Y-53741190D01*
X155506223Y-53741194D01*
X155477230Y-53764988D01*
X155453436Y-53793981D01*
X149095190Y-60152229D01*
X138260957Y-60152229D01*
X138341275Y-59878902D01*
X138387648Y-59361929D01*
X138332273Y-58845841D01*
X138177279Y-58350474D01*
X137954258Y-57933228D01*
X137587499Y-57717106D01*
X135919605Y-59385000D01*
X135933748Y-59399143D01*
X135754143Y-59578748D01*
X135740000Y-59564605D01*
X134072106Y-61232499D01*
X134288228Y-61599258D01*
X134748105Y-61839938D01*
X135246098Y-61986275D01*
X135491875Y-62008321D01*
X134760197Y-62740000D01*
X129577333Y-62740000D01*
X129540000Y-62736323D01*
X129502667Y-62740000D01*
X129391014Y-62750997D01*
X129247753Y-62794454D01*
X129115724Y-62865026D01*
X128999999Y-62959999D01*
X128905026Y-63075724D01*
X128834454Y-63207753D01*
X128790997Y-63351014D01*
X128776323Y-63500000D01*
X125120000Y-63500000D01*
X125120000Y-59408071D01*
X133092352Y-59408071D01*
X133147727Y-59924159D01*
X133302721Y-60419526D01*
X133525742Y-60836772D01*
X133892501Y-61052894D01*
X135560395Y-59385000D01*
X133892501Y-57717106D01*
X133525742Y-57933228D01*
X133285062Y-58393105D01*
X133138725Y-58891098D01*
X133092352Y-59408071D01*
X125120000Y-59408071D01*
X125120000Y-57537501D01*
X134072106Y-57537501D01*
X135740000Y-59205395D01*
X137407894Y-57537501D01*
X137191772Y-57170742D01*
X136731895Y-56930062D01*
X136233902Y-56783725D01*
X135716929Y-56737352D01*
X135200841Y-56792727D01*
X134705474Y-56947721D01*
X134288228Y-57170742D01*
X134072106Y-57537501D01*
X125120000Y-57537501D01*
X125120000Y-54468665D01*
X143345000Y-54468665D01*
X143345000Y-54751335D01*
X143400147Y-55028574D01*
X143508320Y-55289727D01*
X143665363Y-55524759D01*
X143865241Y-55724637D01*
X144100273Y-55881680D01*
X144361426Y-55989853D01*
X144638665Y-56045000D01*
X144921335Y-56045000D01*
X145103886Y-56008688D01*
X145486200Y-56391002D01*
X145509999Y-56420001D01*
X145625724Y-56514974D01*
X145757753Y-56585546D01*
X145901014Y-56629003D01*
X146012667Y-56640000D01*
X146012676Y-56640000D01*
X146049999Y-56643676D01*
X146087322Y-56640000D01*
X148641957Y-56640000D01*
X148745363Y-56794759D01*
X148945241Y-56994637D01*
X149180273Y-57151680D01*
X149441426Y-57259853D01*
X149718665Y-57315000D01*
X150001335Y-57315000D01*
X150278574Y-57259853D01*
X150539727Y-57151680D01*
X150774759Y-56994637D01*
X150974637Y-56794759D01*
X151131680Y-56559727D01*
X151239853Y-56298574D01*
X151295000Y-56021335D01*
X151295000Y-55738665D01*
X151239853Y-55461426D01*
X151131680Y-55200273D01*
X150974637Y-54965241D01*
X150774759Y-54765363D01*
X150539727Y-54608320D01*
X150278574Y-54500147D01*
X150001335Y-54445000D01*
X149718665Y-54445000D01*
X149441426Y-54500147D01*
X149180273Y-54608320D01*
X148945241Y-54765363D01*
X148745363Y-54965241D01*
X148641957Y-55120000D01*
X146364802Y-55120000D01*
X146178688Y-54933886D01*
X146215000Y-54751335D01*
X146215000Y-54468665D01*
X146159853Y-54191426D01*
X146051680Y-53930273D01*
X145894637Y-53695241D01*
X145694759Y-53495363D01*
X145459727Y-53338320D01*
X145198574Y-53230147D01*
X144921335Y-53175000D01*
X144638665Y-53175000D01*
X144361426Y-53230147D01*
X144100273Y-53338320D01*
X143865241Y-53495363D01*
X143665363Y-53695241D01*
X143508320Y-53930273D01*
X143400147Y-54191426D01*
X143345000Y-54468665D01*
X125120000Y-54468665D01*
X125120000Y-50671503D01*
X128586274Y-50671503D01*
X128586274Y-51229949D01*
X128695222Y-51777665D01*
X128908930Y-52293602D01*
X129219186Y-52757933D01*
X129614067Y-53152814D01*
X130078398Y-53463070D01*
X130594335Y-53676778D01*
X131142051Y-53785726D01*
X131700497Y-53785726D01*
X132248213Y-53676778D01*
X132764150Y-53463070D01*
X133228481Y-53152814D01*
X133623362Y-52757933D01*
X133933618Y-52293602D01*
X134147326Y-51777665D01*
X134256274Y-51229949D01*
X134256274Y-50671503D01*
X134226293Y-50520777D01*
X179791000Y-50520777D01*
X179791000Y-51079223D01*
X179899948Y-51626939D01*
X180113656Y-52142876D01*
X180423912Y-52607207D01*
X180818793Y-53002088D01*
X181283124Y-53312344D01*
X181799061Y-53526052D01*
X182346777Y-53635000D01*
X182905223Y-53635000D01*
X183452939Y-53526052D01*
X183968876Y-53312344D01*
X184433207Y-53002088D01*
X184828088Y-52607207D01*
X185138344Y-52142876D01*
X185352052Y-51626939D01*
X185461000Y-51079223D01*
X185461000Y-50520777D01*
X185352052Y-49973061D01*
X185138344Y-49457124D01*
X184828088Y-48992793D01*
X184433207Y-48597912D01*
X183968876Y-48287656D01*
X183452939Y-48073948D01*
X182905223Y-47965000D01*
X182346777Y-47965000D01*
X181799061Y-48073948D01*
X181283124Y-48287656D01*
X180818793Y-48597912D01*
X180423912Y-48992793D01*
X180113656Y-49457124D01*
X179899948Y-49973061D01*
X179791000Y-50520777D01*
X134226293Y-50520777D01*
X134147326Y-50123787D01*
X133933618Y-49607850D01*
X133623362Y-49143519D01*
X133228481Y-48748638D01*
X132764150Y-48438382D01*
X132248213Y-48224674D01*
X131700497Y-48115726D01*
X131142051Y-48115726D01*
X130594335Y-48224674D01*
X130078398Y-48438382D01*
X129614067Y-48748638D01*
X129219186Y-49143519D01*
X128908930Y-49607850D01*
X128695222Y-50123787D01*
X128586274Y-50671503D01*
X125120000Y-50671503D01*
X125120000Y-46380000D01*
X187300000Y-46380000D01*
X187300001Y-95860000D01*
G36*
X135373748Y-75040858D02*
G01*
X135359605Y-75055000D01*
X135373748Y-75069143D01*
X135194143Y-75248748D01*
X135180000Y-75234605D01*
X135165858Y-75248748D01*
X134986253Y-75069143D01*
X135000395Y-75055000D01*
X134986253Y-75040858D01*
X135165858Y-74861253D01*
X135180000Y-74875395D01*
X135194143Y-74861253D01*
X135373748Y-75040858D01*
G37*
X135373748Y-75040858D02*
X135359605Y-75055000D01*
X135373748Y-75069143D01*
X135194143Y-75248748D01*
X135180000Y-75234605D01*
X135165858Y-75248748D01*
X134986253Y-75069143D01*
X135000395Y-75055000D01*
X134986253Y-75040858D01*
X135165858Y-74861253D01*
X135180000Y-74875395D01*
X135194143Y-74861253D01*
X135373748Y-75040858D01*
G36*
X135373748Y-72750858D02*
G01*
X135359605Y-72765000D01*
X135373748Y-72779143D01*
X135194143Y-72958748D01*
X135180000Y-72944605D01*
X135165858Y-72958748D01*
X134986253Y-72779143D01*
X135000395Y-72765000D01*
X134986253Y-72750858D01*
X135165858Y-72571253D01*
X135180000Y-72585395D01*
X135194143Y-72571253D01*
X135373748Y-72750858D01*
G37*
X135373748Y-72750858D02*
X135359605Y-72765000D01*
X135373748Y-72779143D01*
X135194143Y-72958748D01*
X135180000Y-72944605D01*
X135165858Y-72958748D01*
X134986253Y-72779143D01*
X135000395Y-72765000D01*
X134986253Y-72750858D01*
X135165858Y-72571253D01*
X135180000Y-72585395D01*
X135194143Y-72571253D01*
X135373748Y-72750858D01*
G36*
X143400147Y-61811426D02*
G01*
X143345000Y-62088665D01*
X143345000Y-62371335D01*
X143400147Y-62648574D01*
X143508320Y-62909727D01*
X143665363Y-63144759D01*
X143865241Y-63344637D01*
X144020001Y-63448044D01*
X144020001Y-63685197D01*
X138581981Y-69123217D01*
X138539853Y-68911426D01*
X138431680Y-68650273D01*
X138274637Y-68415241D01*
X138074759Y-68215363D01*
X137944951Y-68128628D01*
X137973097Y-68032702D01*
X137160000Y-67219605D01*
X137145858Y-67233748D01*
X136966253Y-67054143D01*
X136980395Y-67040000D01*
X136966253Y-67025858D01*
X137145858Y-66846253D01*
X137160000Y-66860395D01*
X137174143Y-66846253D01*
X137353748Y-67025858D01*
X137339605Y-67040000D01*
X138152702Y-67853097D01*
X138396671Y-67781514D01*
X138517571Y-67526004D01*
X138586300Y-67251816D01*
X138600217Y-66969488D01*
X138558787Y-66689870D01*
X138553469Y-66674999D01*
X139121290Y-66674999D01*
X139165227Y-66718936D01*
X139334745Y-66832204D01*
X139523103Y-66910225D01*
X139723062Y-66949999D01*
X139926940Y-66949999D01*
X140126899Y-66910225D01*
X140315257Y-66832204D01*
X140484775Y-66718936D01*
X140628938Y-66574773D01*
X140742206Y-66405255D01*
X140820227Y-66216897D01*
X140860001Y-66016938D01*
X140860001Y-65813060D01*
X140820227Y-65613101D01*
X140742206Y-65424743D01*
X140628938Y-65255225D01*
X140484775Y-65111062D01*
X140315257Y-64997794D01*
X140126899Y-64919773D01*
X139926940Y-64879999D01*
X139723062Y-64879999D01*
X139523103Y-64919773D01*
X139334745Y-64997794D01*
X139165227Y-65111062D01*
X139121290Y-65154999D01*
X132697322Y-65154999D01*
X132659999Y-65151323D01*
X132622676Y-65154999D01*
X132622666Y-65154999D01*
X132511013Y-65165996D01*
X132367752Y-65209453D01*
X132235722Y-65280025D01*
X132152082Y-65348667D01*
X132119998Y-65374998D01*
X132096199Y-65403997D01*
X131563997Y-65936200D01*
X131534999Y-65959998D01*
X131511201Y-65988996D01*
X131511200Y-65988997D01*
X131440025Y-66075723D01*
X131369453Y-66207753D01*
X131341931Y-66298486D01*
X131326219Y-66350283D01*
X131325997Y-66351014D01*
X131311323Y-66499999D01*
X131315000Y-66537331D01*
X131314999Y-68167676D01*
X131311323Y-68204999D01*
X131314999Y-68242321D01*
X131314999Y-68242331D01*
X131325996Y-68353984D01*
X131356032Y-68453000D01*
X131369453Y-68497245D01*
X131440025Y-68629275D01*
X131479870Y-68677825D01*
X131534998Y-68745000D01*
X131564001Y-68768803D01*
X131801312Y-69006113D01*
X131765000Y-69188665D01*
X131765000Y-69471335D01*
X131820147Y-69748574D01*
X131928320Y-70009727D01*
X132085363Y-70244759D01*
X132200604Y-70360000D01*
X130300000Y-70360000D01*
X130300000Y-64260000D01*
X135037676Y-64260000D01*
X135074998Y-64263676D01*
X135112320Y-64260000D01*
X135112331Y-64260000D01*
X135223984Y-64249003D01*
X135367245Y-64205546D01*
X135499274Y-64134974D01*
X135614999Y-64040001D01*
X135638802Y-64010997D01*
X137977571Y-61672229D01*
X143457804Y-61672229D01*
X143400147Y-61811426D01*
G37*
X143400147Y-61811426D02*
X143345000Y-62088665D01*
X143345000Y-62371335D01*
X143400147Y-62648574D01*
X143508320Y-62909727D01*
X143665363Y-63144759D01*
X143865241Y-63344637D01*
X144020001Y-63448044D01*
X144020001Y-63685197D01*
X138581981Y-69123217D01*
X138539853Y-68911426D01*
X138431680Y-68650273D01*
X138274637Y-68415241D01*
X138074759Y-68215363D01*
X137944951Y-68128628D01*
X137973097Y-68032702D01*
X137160000Y-67219605D01*
X137145858Y-67233748D01*
X136966253Y-67054143D01*
X136980395Y-67040000D01*
X136966253Y-67025858D01*
X137145858Y-66846253D01*
X137160000Y-66860395D01*
X137174143Y-66846253D01*
X137353748Y-67025858D01*
X137339605Y-67040000D01*
X138152702Y-67853097D01*
X138396671Y-67781514D01*
X138517571Y-67526004D01*
X138586300Y-67251816D01*
X138600217Y-66969488D01*
X138558787Y-66689870D01*
X138553469Y-66674999D01*
X139121290Y-66674999D01*
X139165227Y-66718936D01*
X139334745Y-66832204D01*
X139523103Y-66910225D01*
X139723062Y-66949999D01*
X139926940Y-66949999D01*
X140126899Y-66910225D01*
X140315257Y-66832204D01*
X140484775Y-66718936D01*
X140628938Y-66574773D01*
X140742206Y-66405255D01*
X140820227Y-66216897D01*
X140860001Y-66016938D01*
X140860001Y-65813060D01*
X140820227Y-65613101D01*
X140742206Y-65424743D01*
X140628938Y-65255225D01*
X140484775Y-65111062D01*
X140315257Y-64997794D01*
X140126899Y-64919773D01*
X139926940Y-64879999D01*
X139723062Y-64879999D01*
X139523103Y-64919773D01*
X139334745Y-64997794D01*
X139165227Y-65111062D01*
X139121290Y-65154999D01*
X132697322Y-65154999D01*
X132659999Y-65151323D01*
X132622676Y-65154999D01*
X132622666Y-65154999D01*
X132511013Y-65165996D01*
X132367752Y-65209453D01*
X132235722Y-65280025D01*
X132152082Y-65348667D01*
X132119998Y-65374998D01*
X132096199Y-65403997D01*
X131563997Y-65936200D01*
X131534999Y-65959998D01*
X131511201Y-65988996D01*
X131511200Y-65988997D01*
X131440025Y-66075723D01*
X131369453Y-66207753D01*
X131341931Y-66298486D01*
X131326219Y-66350283D01*
X131325997Y-66351014D01*
X131311323Y-66499999D01*
X131315000Y-66537331D01*
X131314999Y-68167676D01*
X131311323Y-68204999D01*
X131314999Y-68242321D01*
X131314999Y-68242331D01*
X131325996Y-68353984D01*
X131356032Y-68453000D01*
X131369453Y-68497245D01*
X131440025Y-68629275D01*
X131479870Y-68677825D01*
X131534998Y-68745000D01*
X131564001Y-68768803D01*
X131801312Y-69006113D01*
X131765000Y-69188665D01*
X131765000Y-69471335D01*
X131820147Y-69748574D01*
X131928320Y-70009727D01*
X132085363Y-70244759D01*
X132200604Y-70360000D01*
X130300000Y-70360000D01*
X130300000Y-64260000D01*
X135037676Y-64260000D01*
X135074998Y-64263676D01*
X135112320Y-64260000D01*
X135112331Y-64260000D01*
X135223984Y-64249003D01*
X135367245Y-64205546D01*
X135499274Y-64134974D01*
X135614999Y-64040001D01*
X135638802Y-64010997D01*
X137977571Y-61672229D01*
X143457804Y-61672229D01*
X143400147Y-61811426D01*
G36*
X135373748Y-68170858D02*
G01*
X135359605Y-68185000D01*
X135373748Y-68199143D01*
X135194143Y-68378748D01*
X135180000Y-68364605D01*
X135165858Y-68378748D01*
X134986253Y-68199143D01*
X135000395Y-68185000D01*
X134986253Y-68170858D01*
X135165858Y-67991253D01*
X135180000Y-68005395D01*
X135194143Y-67991253D01*
X135373748Y-68170858D01*
G37*
X135373748Y-68170858D02*
X135359605Y-68185000D01*
X135373748Y-68199143D01*
X135194143Y-68378748D01*
X135180000Y-68364605D01*
X135165858Y-68378748D01*
X134986253Y-68199143D01*
X135000395Y-68185000D01*
X134986253Y-68170858D01*
X135165858Y-67991253D01*
X135180000Y-68005395D01*
X135194143Y-67991253D01*
X135373748Y-68170858D01*
%TD*%
M02*
