%TF.GenerationSoftware,KiCad,Pcbnew,5.1.6+dfsg1-1*%
%TF.CreationDate,2021-01-03T21:19:59-08:00*%
%TF.ProjectId,KiCAD-VGA,4b694341-442d-4564-9741-2e6b69636164,rev?*%
%TF.SameCoordinates,Original*%
%TF.FileFunction,Legend,Top*%
%TF.FilePolarity,Positive*%
%FSLAX46Y46*%
G04 Gerber Fmt 4.6, Leading zero omitted, Abs format (unit mm)*
G04 Created by KiCad (PCBNEW 5.1.6+dfsg1-1) date 2021-01-03 21:19:59*
%MOMM*%
%LPD*%
G01*
G04 APERTURE LIST*
%ADD10C,0.150000*%
%ADD11C,0.120000*%
G04 APERTURE END LIST*
D10*
X185372380Y-80732380D02*
X185467619Y-80732380D01*
X185562857Y-80780000D01*
X185610476Y-80827619D01*
X185658095Y-80922857D01*
X185705714Y-81113333D01*
X185705714Y-81351428D01*
X185658095Y-81541904D01*
X185610476Y-81637142D01*
X185562857Y-81684761D01*
X185467619Y-81732380D01*
X185372380Y-81732380D01*
X185277142Y-81684761D01*
X185229523Y-81637142D01*
X185181904Y-81541904D01*
X185134285Y-81351428D01*
X185134285Y-81113333D01*
X185181904Y-80922857D01*
X185229523Y-80827619D01*
X185277142Y-80780000D01*
X185372380Y-80732380D01*
X184777142Y-83605714D02*
X184777142Y-84272380D01*
X184777142Y-83700952D02*
X184824761Y-83653333D01*
X184920000Y-83605714D01*
X185062857Y-83605714D01*
X185158095Y-83653333D01*
X185205714Y-83748571D01*
X185205714Y-84272380D01*
X186110476Y-84224761D02*
X186015238Y-84272380D01*
X185824761Y-84272380D01*
X185729523Y-84224761D01*
X185681904Y-84177142D01*
X185634285Y-84081904D01*
X185634285Y-83796190D01*
X185681904Y-83700952D01*
X185729523Y-83653333D01*
X185824761Y-83605714D01*
X186015238Y-83605714D01*
X186110476Y-83653333D01*
X184777142Y-78525714D02*
X185015238Y-79192380D01*
X185253333Y-78525714D01*
X185586666Y-79144761D02*
X185681904Y-79192380D01*
X185872380Y-79192380D01*
X185967619Y-79144761D01*
X186015238Y-79049523D01*
X186015238Y-79001904D01*
X185967619Y-78906666D01*
X185872380Y-78859047D01*
X185729523Y-78859047D01*
X185634285Y-78811428D01*
X185586666Y-78716190D01*
X185586666Y-78668571D01*
X185634285Y-78573333D01*
X185729523Y-78525714D01*
X185872380Y-78525714D01*
X185967619Y-78573333D01*
X184800952Y-76652380D02*
X184800952Y-75652380D01*
X185229523Y-76652380D02*
X185229523Y-76128571D01*
X185181904Y-76033333D01*
X185086666Y-75985714D01*
X184943809Y-75985714D01*
X184848571Y-76033333D01*
X184800952Y-76080952D01*
X185658095Y-76604761D02*
X185753333Y-76652380D01*
X185943809Y-76652380D01*
X186039047Y-76604761D01*
X186086666Y-76509523D01*
X186086666Y-76461904D01*
X186039047Y-76366666D01*
X185943809Y-76319047D01*
X185800952Y-76319047D01*
X185705714Y-76271428D01*
X185658095Y-76176190D01*
X185658095Y-76128571D01*
X185705714Y-76033333D01*
X185800952Y-75985714D01*
X185943809Y-75985714D01*
X186039047Y-76033333D01*
X184729523Y-74112380D02*
X184729523Y-73112380D01*
X184729523Y-73493333D02*
X184824761Y-73445714D01*
X185015238Y-73445714D01*
X185110476Y-73493333D01*
X185158095Y-73540952D01*
X185205714Y-73636190D01*
X185205714Y-73921904D01*
X185158095Y-74017142D01*
X185110476Y-74064761D01*
X185015238Y-74112380D01*
X184824761Y-74112380D01*
X184729523Y-74064761D01*
X186158095Y-74112380D02*
X185586666Y-74112380D01*
X185872380Y-74112380D02*
X185872380Y-73112380D01*
X185777142Y-73255238D01*
X185681904Y-73350476D01*
X185586666Y-73398095D01*
X184729523Y-71572380D02*
X184729523Y-70572380D01*
X184729523Y-70953333D02*
X184824761Y-70905714D01*
X185015238Y-70905714D01*
X185110476Y-70953333D01*
X185158095Y-71000952D01*
X185205714Y-71096190D01*
X185205714Y-71381904D01*
X185158095Y-71477142D01*
X185110476Y-71524761D01*
X185015238Y-71572380D01*
X184824761Y-71572380D01*
X184729523Y-71524761D01*
X185824761Y-70572380D02*
X185920000Y-70572380D01*
X186015238Y-70620000D01*
X186062857Y-70667619D01*
X186110476Y-70762857D01*
X186158095Y-70953333D01*
X186158095Y-71191428D01*
X186110476Y-71381904D01*
X186062857Y-71477142D01*
X186015238Y-71524761D01*
X185920000Y-71572380D01*
X185824761Y-71572380D01*
X185729523Y-71524761D01*
X185681904Y-71477142D01*
X185634285Y-71381904D01*
X185586666Y-71191428D01*
X185586666Y-70953333D01*
X185634285Y-70762857D01*
X185681904Y-70667619D01*
X185729523Y-70620000D01*
X185824761Y-70572380D01*
X185158095Y-68365714D02*
X185158095Y-69175238D01*
X185110476Y-69270476D01*
X185062857Y-69318095D01*
X184967619Y-69365714D01*
X184824761Y-69365714D01*
X184729523Y-69318095D01*
X185158095Y-68984761D02*
X185062857Y-69032380D01*
X184872380Y-69032380D01*
X184777142Y-68984761D01*
X184729523Y-68937142D01*
X184681904Y-68841904D01*
X184681904Y-68556190D01*
X184729523Y-68460952D01*
X184777142Y-68413333D01*
X184872380Y-68365714D01*
X185062857Y-68365714D01*
X185158095Y-68413333D01*
X186158095Y-69032380D02*
X185586666Y-69032380D01*
X185872380Y-69032380D02*
X185872380Y-68032380D01*
X185777142Y-68175238D01*
X185681904Y-68270476D01*
X185586666Y-68318095D01*
X185158095Y-65825714D02*
X185158095Y-66635238D01*
X185110476Y-66730476D01*
X185062857Y-66778095D01*
X184967619Y-66825714D01*
X184824761Y-66825714D01*
X184729523Y-66778095D01*
X185158095Y-66444761D02*
X185062857Y-66492380D01*
X184872380Y-66492380D01*
X184777142Y-66444761D01*
X184729523Y-66397142D01*
X184681904Y-66301904D01*
X184681904Y-66016190D01*
X184729523Y-65920952D01*
X184777142Y-65873333D01*
X184872380Y-65825714D01*
X185062857Y-65825714D01*
X185158095Y-65873333D01*
X185824761Y-65492380D02*
X185920000Y-65492380D01*
X186015238Y-65540000D01*
X186062857Y-65587619D01*
X186110476Y-65682857D01*
X186158095Y-65873333D01*
X186158095Y-66111428D01*
X186110476Y-66301904D01*
X186062857Y-66397142D01*
X186015238Y-66444761D01*
X185920000Y-66492380D01*
X185824761Y-66492380D01*
X185729523Y-66444761D01*
X185681904Y-66397142D01*
X185634285Y-66301904D01*
X185586666Y-66111428D01*
X185586666Y-65873333D01*
X185634285Y-65682857D01*
X185681904Y-65587619D01*
X185729523Y-65540000D01*
X185824761Y-65492380D01*
X184872380Y-63952380D02*
X184872380Y-63285714D01*
X184872380Y-63476190D02*
X184920000Y-63380952D01*
X184967619Y-63333333D01*
X185062857Y-63285714D01*
X185158095Y-63285714D01*
X186015238Y-63952380D02*
X185443809Y-63952380D01*
X185729523Y-63952380D02*
X185729523Y-62952380D01*
X185634285Y-63095238D01*
X185539047Y-63190476D01*
X185443809Y-63238095D01*
X184872380Y-61412380D02*
X184872380Y-60745714D01*
X184872380Y-60936190D02*
X184920000Y-60840952D01*
X184967619Y-60793333D01*
X185062857Y-60745714D01*
X185158095Y-60745714D01*
X185681904Y-60412380D02*
X185777142Y-60412380D01*
X185872380Y-60460000D01*
X185920000Y-60507619D01*
X185967619Y-60602857D01*
X186015238Y-60793333D01*
X186015238Y-61031428D01*
X185967619Y-61221904D01*
X185920000Y-61317142D01*
X185872380Y-61364761D01*
X185777142Y-61412380D01*
X185681904Y-61412380D01*
X185586666Y-61364761D01*
X185539047Y-61317142D01*
X185491428Y-61221904D01*
X185443809Y-61031428D01*
X185443809Y-60793333D01*
X185491428Y-60602857D01*
X185539047Y-60507619D01*
X185586666Y-60460000D01*
X185681904Y-60412380D01*
X147114761Y-92495714D02*
X147114761Y-93162380D01*
X146876666Y-92114761D02*
X146638571Y-92829047D01*
X147257619Y-92829047D01*
X147638571Y-92781428D02*
X148400476Y-92781428D01*
X148876666Y-93162380D02*
X148876666Y-92162380D01*
X148876666Y-92543333D02*
X148971904Y-92495714D01*
X149162380Y-92495714D01*
X149257619Y-92543333D01*
X149305238Y-92590952D01*
X149352857Y-92686190D01*
X149352857Y-92971904D01*
X149305238Y-93067142D01*
X149257619Y-93114761D01*
X149162380Y-93162380D01*
X148971904Y-93162380D01*
X148876666Y-93114761D01*
X149781428Y-93162380D02*
X149781428Y-92495714D01*
X149781428Y-92162380D02*
X149733809Y-92210000D01*
X149781428Y-92257619D01*
X149829047Y-92210000D01*
X149781428Y-92162380D01*
X149781428Y-92257619D01*
X150114761Y-92495714D02*
X150495714Y-92495714D01*
X150257619Y-92162380D02*
X150257619Y-93019523D01*
X150305238Y-93114761D01*
X150400476Y-93162380D01*
X150495714Y-93162380D01*
X151448095Y-92162380D02*
X151781428Y-93162380D01*
X152114761Y-92162380D01*
X152971904Y-92210000D02*
X152876666Y-92162380D01*
X152733809Y-92162380D01*
X152590952Y-92210000D01*
X152495714Y-92305238D01*
X152448095Y-92400476D01*
X152400476Y-92590952D01*
X152400476Y-92733809D01*
X152448095Y-92924285D01*
X152495714Y-93019523D01*
X152590952Y-93114761D01*
X152733809Y-93162380D01*
X152829047Y-93162380D01*
X152971904Y-93114761D01*
X153019523Y-93067142D01*
X153019523Y-92733809D01*
X152829047Y-92733809D01*
X153400476Y-92876666D02*
X153876666Y-92876666D01*
X153305238Y-93162380D02*
X153638571Y-92162380D01*
X153971904Y-93162380D01*
X155067142Y-93162380D02*
X155067142Y-92162380D01*
X155305238Y-92162380D01*
X155448095Y-92210000D01*
X155543333Y-92305238D01*
X155590952Y-92400476D01*
X155638571Y-92590952D01*
X155638571Y-92733809D01*
X155590952Y-92924285D01*
X155543333Y-93019523D01*
X155448095Y-93114761D01*
X155305238Y-93162380D01*
X155067142Y-93162380D01*
X156019523Y-92876666D02*
X156495714Y-92876666D01*
X155924285Y-93162380D02*
X156257619Y-92162380D01*
X156590952Y-93162380D01*
X157495714Y-93067142D02*
X157448095Y-93114761D01*
X157305238Y-93162380D01*
X157210000Y-93162380D01*
X157067142Y-93114761D01*
X156971904Y-93019523D01*
X156924285Y-92924285D01*
X156876666Y-92733809D01*
X156876666Y-92590952D01*
X156924285Y-92400476D01*
X156971904Y-92305238D01*
X157067142Y-92210000D01*
X157210000Y-92162380D01*
X157305238Y-92162380D01*
X157448095Y-92210000D01*
X157495714Y-92257619D01*
X158971904Y-93543333D02*
X158924285Y-93543333D01*
X158829047Y-93495714D01*
X158781428Y-93400476D01*
X158781428Y-92924285D01*
X158733809Y-92829047D01*
X158638571Y-92781428D01*
X158733809Y-92733809D01*
X158781428Y-92638571D01*
X158781428Y-92162380D01*
X158829047Y-92067142D01*
X158924285Y-92019523D01*
X158971904Y-92019523D01*
X159352857Y-93162380D02*
X159352857Y-92162380D01*
X159448095Y-92781428D02*
X159733809Y-93162380D01*
X159733809Y-92495714D02*
X159352857Y-92876666D01*
X160162380Y-93162380D02*
X160162380Y-92495714D01*
X160162380Y-92686190D02*
X160209999Y-92590952D01*
X160257619Y-92543333D01*
X160352857Y-92495714D01*
X160448095Y-92495714D01*
X160924285Y-93162380D02*
X160829047Y-93114761D01*
X160781428Y-93067142D01*
X160733809Y-92971904D01*
X160733809Y-92686190D01*
X160781428Y-92590952D01*
X160829047Y-92543333D01*
X160924285Y-92495714D01*
X161067142Y-92495714D01*
X161162380Y-92543333D01*
X161209999Y-92590952D01*
X161257619Y-92686190D01*
X161257619Y-92971904D01*
X161209999Y-93067142D01*
X161162380Y-93114761D01*
X161067142Y-93162380D01*
X160924285Y-93162380D01*
X161686190Y-93162380D02*
X161686190Y-92495714D01*
X161686190Y-92590952D02*
X161733809Y-92543333D01*
X161829047Y-92495714D01*
X161971904Y-92495714D01*
X162067142Y-92543333D01*
X162114761Y-92638571D01*
X162114761Y-93162380D01*
X162114761Y-92638571D02*
X162162380Y-92543333D01*
X162257619Y-92495714D01*
X162400476Y-92495714D01*
X162495714Y-92543333D01*
X162543333Y-92638571D01*
X162543333Y-93162380D01*
X162924285Y-92495714D02*
X163162380Y-93162380D01*
X163400476Y-92495714D02*
X163162380Y-93162380D01*
X163067142Y-93400476D01*
X163019523Y-93448095D01*
X162924285Y-93495714D01*
X164210000Y-93114761D02*
X164114761Y-93162380D01*
X163924285Y-93162380D01*
X163829047Y-93114761D01*
X163781428Y-93067142D01*
X163733809Y-92971904D01*
X163733809Y-92686190D01*
X163781428Y-92590952D01*
X163829047Y-92543333D01*
X163924285Y-92495714D01*
X164114761Y-92495714D01*
X164210000Y-92543333D01*
X164638571Y-93162380D02*
X164638571Y-92162380D01*
X165067142Y-93162380D02*
X165067142Y-92638571D01*
X165019523Y-92543333D01*
X164924285Y-92495714D01*
X164781428Y-92495714D01*
X164686190Y-92543333D01*
X164638571Y-92590952D01*
X165448095Y-93543333D02*
X165495714Y-93543333D01*
X165590952Y-93495714D01*
X165638571Y-93400476D01*
X165638571Y-92924285D01*
X165686190Y-92829047D01*
X165781428Y-92781428D01*
X165686190Y-92733809D01*
X165638571Y-92638571D01*
X165638571Y-92162380D01*
X165590952Y-92067142D01*
X165495714Y-92019523D01*
X165448095Y-92019523D01*
D11*
%TO.C,J2*%
X139261325Y-76200000D02*
X139694338Y-75950000D01*
X139694338Y-76450000D02*
X139261325Y-76200000D01*
X139694338Y-75950000D02*
X139694338Y-76450000D01*
X138800000Y-87370000D02*
X124910000Y-87370000D01*
X138800000Y-56400000D02*
X138800000Y-87370000D01*
X124910000Y-56400000D02*
X138800000Y-56400000D01*
%TO.C,R21*%
X156940000Y-57250000D02*
X156940000Y-56920000D01*
X150400000Y-57250000D02*
X156940000Y-57250000D01*
X150400000Y-56920000D02*
X150400000Y-57250000D01*
X156940000Y-54510000D02*
X156940000Y-54840000D01*
X150400000Y-54510000D02*
X156940000Y-54510000D01*
X150400000Y-54840000D02*
X150400000Y-54510000D01*
%TO.C,R20*%
X146150000Y-55150000D02*
X145820000Y-55150000D01*
X146150000Y-61690000D02*
X146150000Y-55150000D01*
X145820000Y-61690000D02*
X146150000Y-61690000D01*
X143410000Y-55150000D02*
X143740000Y-55150000D01*
X143410000Y-61690000D02*
X143410000Y-55150000D01*
X143740000Y-61690000D02*
X143410000Y-61690000D01*
%TO.C,R19*%
X156940000Y-69950000D02*
X156940000Y-69620000D01*
X150400000Y-69950000D02*
X156940000Y-69950000D01*
X150400000Y-69620000D02*
X150400000Y-69950000D01*
X156940000Y-67210000D02*
X156940000Y-67540000D01*
X150400000Y-67210000D02*
X156940000Y-67210000D01*
X150400000Y-67540000D02*
X150400000Y-67210000D01*
%TO.C,R18*%
X146150000Y-69120000D02*
X145820000Y-69120000D01*
X146150000Y-75660000D02*
X146150000Y-69120000D01*
X145820000Y-75660000D02*
X146150000Y-75660000D01*
X143410000Y-69120000D02*
X143740000Y-69120000D01*
X143410000Y-75660000D02*
X143410000Y-69120000D01*
X143740000Y-75660000D02*
X143410000Y-75660000D01*
%TO.C,R17*%
X156940000Y-82650000D02*
X156940000Y-82320000D01*
X150400000Y-82650000D02*
X156940000Y-82650000D01*
X150400000Y-82320000D02*
X150400000Y-82650000D01*
X156940000Y-79910000D02*
X156940000Y-80240000D01*
X150400000Y-79910000D02*
X156940000Y-79910000D01*
X150400000Y-80240000D02*
X150400000Y-79910000D01*
%TO.C,R16*%
X146150000Y-81820000D02*
X145820000Y-81820000D01*
X146150000Y-88360000D02*
X146150000Y-81820000D01*
X145820000Y-88360000D02*
X146150000Y-88360000D01*
X143410000Y-81820000D02*
X143740000Y-81820000D01*
X143410000Y-88360000D02*
X143410000Y-81820000D01*
X143740000Y-88360000D02*
X143410000Y-88360000D01*
%TO.C,R15*%
X160560000Y-54510000D02*
X160560000Y-54840000D01*
X167100000Y-54510000D02*
X160560000Y-54510000D01*
X167100000Y-54840000D02*
X167100000Y-54510000D01*
X160560000Y-57250000D02*
X160560000Y-56920000D01*
X167100000Y-57250000D02*
X160560000Y-57250000D01*
X167100000Y-56920000D02*
X167100000Y-57250000D01*
%TO.C,R14*%
X150400000Y-60860000D02*
X150400000Y-61190000D01*
X156940000Y-60860000D02*
X150400000Y-60860000D01*
X156940000Y-61190000D02*
X156940000Y-60860000D01*
X150400000Y-63600000D02*
X150400000Y-63270000D01*
X156940000Y-63600000D02*
X150400000Y-63600000D01*
X156940000Y-63270000D02*
X156940000Y-63600000D01*
%TO.C,R13*%
X160560000Y-67210000D02*
X160560000Y-67540000D01*
X167100000Y-67210000D02*
X160560000Y-67210000D01*
X167100000Y-67540000D02*
X167100000Y-67210000D01*
X160560000Y-69950000D02*
X160560000Y-69620000D01*
X167100000Y-69950000D02*
X160560000Y-69950000D01*
X167100000Y-69620000D02*
X167100000Y-69950000D01*
%TO.C,R12*%
X150400000Y-73560000D02*
X150400000Y-73890000D01*
X156940000Y-73560000D02*
X150400000Y-73560000D01*
X156940000Y-73890000D02*
X156940000Y-73560000D01*
X150400000Y-76300000D02*
X150400000Y-75970000D01*
X156940000Y-76300000D02*
X150400000Y-76300000D01*
X156940000Y-75970000D02*
X156940000Y-76300000D01*
%TO.C,R11*%
X160560000Y-79910000D02*
X160560000Y-80240000D01*
X167100000Y-79910000D02*
X160560000Y-79910000D01*
X167100000Y-80240000D02*
X167100000Y-79910000D01*
X160560000Y-82650000D02*
X160560000Y-82320000D01*
X167100000Y-82650000D02*
X160560000Y-82650000D01*
X167100000Y-82320000D02*
X167100000Y-82650000D01*
%TO.C,R10*%
X150400000Y-86260000D02*
X150400000Y-86590000D01*
X156940000Y-86260000D02*
X150400000Y-86260000D01*
X156940000Y-86590000D02*
X156940000Y-86260000D01*
X150400000Y-89000000D02*
X150400000Y-88670000D01*
X156940000Y-89000000D02*
X150400000Y-89000000D01*
X156940000Y-88670000D02*
X156940000Y-89000000D01*
%TO.C,R9*%
X160560000Y-60860000D02*
X160560000Y-61190000D01*
X167100000Y-60860000D02*
X160560000Y-60860000D01*
X167100000Y-61190000D02*
X167100000Y-60860000D01*
X160560000Y-63600000D02*
X160560000Y-63270000D01*
X167100000Y-63600000D02*
X160560000Y-63600000D01*
X167100000Y-63270000D02*
X167100000Y-63600000D01*
%TO.C,R8*%
X160560000Y-73560000D02*
X160560000Y-73890000D01*
X167100000Y-73560000D02*
X160560000Y-73560000D01*
X167100000Y-73890000D02*
X167100000Y-73560000D01*
X160560000Y-76300000D02*
X160560000Y-75970000D01*
X167100000Y-76300000D02*
X160560000Y-76300000D01*
X167100000Y-75970000D02*
X167100000Y-76300000D01*
%TO.C,R7*%
X160560000Y-86260000D02*
X160560000Y-86590000D01*
X167100000Y-86260000D02*
X160560000Y-86260000D01*
X167100000Y-86590000D02*
X167100000Y-86260000D01*
X160560000Y-89000000D02*
X160560000Y-88670000D01*
X167100000Y-89000000D02*
X160560000Y-89000000D01*
X167100000Y-88670000D02*
X167100000Y-89000000D01*
%TO.C,R6*%
X170720000Y-54510000D02*
X170720000Y-54840000D01*
X177260000Y-54510000D02*
X170720000Y-54510000D01*
X177260000Y-54840000D02*
X177260000Y-54510000D01*
X170720000Y-57250000D02*
X170720000Y-56920000D01*
X177260000Y-57250000D02*
X170720000Y-57250000D01*
X177260000Y-56920000D02*
X177260000Y-57250000D01*
%TO.C,R5*%
X170720000Y-60860000D02*
X170720000Y-61190000D01*
X177260000Y-60860000D02*
X170720000Y-60860000D01*
X177260000Y-61190000D02*
X177260000Y-60860000D01*
X170720000Y-63600000D02*
X170720000Y-63270000D01*
X177260000Y-63600000D02*
X170720000Y-63600000D01*
X177260000Y-63270000D02*
X177260000Y-63600000D01*
%TO.C,R4*%
X170720000Y-67210000D02*
X170720000Y-67540000D01*
X177260000Y-67210000D02*
X170720000Y-67210000D01*
X177260000Y-67540000D02*
X177260000Y-67210000D01*
X170720000Y-69950000D02*
X170720000Y-69620000D01*
X177260000Y-69950000D02*
X170720000Y-69950000D01*
X177260000Y-69620000D02*
X177260000Y-69950000D01*
%TO.C,R3*%
X170720000Y-73560000D02*
X170720000Y-73890000D01*
X177260000Y-73560000D02*
X170720000Y-73560000D01*
X177260000Y-73890000D02*
X177260000Y-73560000D01*
X170720000Y-76300000D02*
X170720000Y-75970000D01*
X177260000Y-76300000D02*
X170720000Y-76300000D01*
X177260000Y-75970000D02*
X177260000Y-76300000D01*
%TO.C,R2*%
X170720000Y-79910000D02*
X170720000Y-80240000D01*
X177260000Y-79910000D02*
X170720000Y-79910000D01*
X177260000Y-80240000D02*
X177260000Y-79910000D01*
X170720000Y-82650000D02*
X170720000Y-82320000D01*
X177260000Y-82650000D02*
X170720000Y-82650000D01*
X177260000Y-82320000D02*
X177260000Y-82650000D01*
%TO.C,R1*%
X170720000Y-86260000D02*
X170720000Y-86590000D01*
X177260000Y-86260000D02*
X170720000Y-86260000D01*
X177260000Y-86590000D02*
X177260000Y-86260000D01*
X170720000Y-89000000D02*
X170720000Y-88670000D01*
X177260000Y-89000000D02*
X170720000Y-89000000D01*
X177260000Y-88670000D02*
X177260000Y-89000000D01*
%TO.C,J1*%
X182880000Y-59630000D02*
X184210000Y-59630000D01*
X184210000Y-59630000D02*
X184210000Y-60960000D01*
X184210000Y-62230000D02*
X184210000Y-85150000D01*
X181550000Y-85150000D02*
X184210000Y-85150000D01*
X181550000Y-62230000D02*
X181550000Y-85150000D01*
X181550000Y-62230000D02*
X184210000Y-62230000D01*
%TO.C,J2*%
D10*
X139192380Y-72218333D02*
X139906666Y-72218333D01*
X140049523Y-72265952D01*
X140144761Y-72361190D01*
X140192380Y-72504047D01*
X140192380Y-72599285D01*
X139287619Y-71789761D02*
X139240000Y-71742142D01*
X139192380Y-71646904D01*
X139192380Y-71408809D01*
X139240000Y-71313571D01*
X139287619Y-71265952D01*
X139382857Y-71218333D01*
X139478095Y-71218333D01*
X139620952Y-71265952D01*
X140192380Y-71837380D01*
X140192380Y-71218333D01*
%TO.C,H4*%
X182118095Y-88946380D02*
X182118095Y-87946380D01*
X182118095Y-88422571D02*
X182689523Y-88422571D01*
X182689523Y-88946380D02*
X182689523Y-87946380D01*
X183594285Y-88279714D02*
X183594285Y-88946380D01*
X183356190Y-87898761D02*
X183118095Y-88613047D01*
X183737142Y-88613047D01*
%TO.C,H3*%
X181864095Y-48052380D02*
X181864095Y-47052380D01*
X181864095Y-47528571D02*
X182435523Y-47528571D01*
X182435523Y-48052380D02*
X182435523Y-47052380D01*
X182816476Y-47052380D02*
X183435523Y-47052380D01*
X183102190Y-47433333D01*
X183245047Y-47433333D01*
X183340285Y-47480952D01*
X183387904Y-47528571D01*
X183435523Y-47623809D01*
X183435523Y-47861904D01*
X183387904Y-47957142D01*
X183340285Y-48004761D01*
X183245047Y-48052380D01*
X182959333Y-48052380D01*
X182864095Y-48004761D01*
X182816476Y-47957142D01*
%TO.C,H2*%
X131064095Y-89200380D02*
X131064095Y-88200380D01*
X131064095Y-88676571D02*
X131635523Y-88676571D01*
X131635523Y-89200380D02*
X131635523Y-88200380D01*
X132064095Y-88295619D02*
X132111714Y-88248000D01*
X132206952Y-88200380D01*
X132445047Y-88200380D01*
X132540285Y-88248000D01*
X132587904Y-88295619D01*
X132635523Y-88390857D01*
X132635523Y-88486095D01*
X132587904Y-88628952D01*
X132016476Y-89200380D01*
X132635523Y-89200380D01*
%TO.C,H1*%
X130659369Y-48203106D02*
X130659369Y-47203106D01*
X130659369Y-47679297D02*
X131230797Y-47679297D01*
X131230797Y-48203106D02*
X131230797Y-47203106D01*
X132230797Y-48203106D02*
X131659369Y-48203106D01*
X131945083Y-48203106D02*
X131945083Y-47203106D01*
X131849845Y-47345964D01*
X131754607Y-47441202D01*
X131659369Y-47488821D01*
%TO.C,R21*%
X153027142Y-53962380D02*
X152693809Y-53486190D01*
X152455714Y-53962380D02*
X152455714Y-52962380D01*
X152836666Y-52962380D01*
X152931904Y-53010000D01*
X152979523Y-53057619D01*
X153027142Y-53152857D01*
X153027142Y-53295714D01*
X152979523Y-53390952D01*
X152931904Y-53438571D01*
X152836666Y-53486190D01*
X152455714Y-53486190D01*
X153408095Y-53057619D02*
X153455714Y-53010000D01*
X153550952Y-52962380D01*
X153789047Y-52962380D01*
X153884285Y-53010000D01*
X153931904Y-53057619D01*
X153979523Y-53152857D01*
X153979523Y-53248095D01*
X153931904Y-53390952D01*
X153360476Y-53962380D01*
X153979523Y-53962380D01*
X154931904Y-53962380D02*
X154360476Y-53962380D01*
X154646190Y-53962380D02*
X154646190Y-52962380D01*
X154550952Y-53105238D01*
X154455714Y-53200476D01*
X154360476Y-53248095D01*
%TO.C,R20*%
X142862380Y-59062857D02*
X142386190Y-59396190D01*
X142862380Y-59634285D02*
X141862380Y-59634285D01*
X141862380Y-59253333D01*
X141910000Y-59158095D01*
X141957619Y-59110476D01*
X142052857Y-59062857D01*
X142195714Y-59062857D01*
X142290952Y-59110476D01*
X142338571Y-59158095D01*
X142386190Y-59253333D01*
X142386190Y-59634285D01*
X141957619Y-58681904D02*
X141910000Y-58634285D01*
X141862380Y-58539047D01*
X141862380Y-58300952D01*
X141910000Y-58205714D01*
X141957619Y-58158095D01*
X142052857Y-58110476D01*
X142148095Y-58110476D01*
X142290952Y-58158095D01*
X142862380Y-58729523D01*
X142862380Y-58110476D01*
X141862380Y-57491428D02*
X141862380Y-57396190D01*
X141910000Y-57300952D01*
X141957619Y-57253333D01*
X142052857Y-57205714D01*
X142243333Y-57158095D01*
X142481428Y-57158095D01*
X142671904Y-57205714D01*
X142767142Y-57253333D01*
X142814761Y-57300952D01*
X142862380Y-57396190D01*
X142862380Y-57491428D01*
X142814761Y-57586666D01*
X142767142Y-57634285D01*
X142671904Y-57681904D01*
X142481428Y-57729523D01*
X142243333Y-57729523D01*
X142052857Y-57681904D01*
X141957619Y-57634285D01*
X141910000Y-57586666D01*
X141862380Y-57491428D01*
%TO.C,R19*%
X153027142Y-66662380D02*
X152693809Y-66186190D01*
X152455714Y-66662380D02*
X152455714Y-65662380D01*
X152836666Y-65662380D01*
X152931904Y-65710000D01*
X152979523Y-65757619D01*
X153027142Y-65852857D01*
X153027142Y-65995714D01*
X152979523Y-66090952D01*
X152931904Y-66138571D01*
X152836666Y-66186190D01*
X152455714Y-66186190D01*
X153979523Y-66662380D02*
X153408095Y-66662380D01*
X153693809Y-66662380D02*
X153693809Y-65662380D01*
X153598571Y-65805238D01*
X153503333Y-65900476D01*
X153408095Y-65948095D01*
X154455714Y-66662380D02*
X154646190Y-66662380D01*
X154741428Y-66614761D01*
X154789047Y-66567142D01*
X154884285Y-66424285D01*
X154931904Y-66233809D01*
X154931904Y-65852857D01*
X154884285Y-65757619D01*
X154836666Y-65710000D01*
X154741428Y-65662380D01*
X154550952Y-65662380D01*
X154455714Y-65710000D01*
X154408095Y-65757619D01*
X154360476Y-65852857D01*
X154360476Y-66090952D01*
X154408095Y-66186190D01*
X154455714Y-66233809D01*
X154550952Y-66281428D01*
X154741428Y-66281428D01*
X154836666Y-66233809D01*
X154884285Y-66186190D01*
X154931904Y-66090952D01*
%TO.C,R18*%
X142862380Y-73032857D02*
X142386190Y-73366190D01*
X142862380Y-73604285D02*
X141862380Y-73604285D01*
X141862380Y-73223333D01*
X141910000Y-73128095D01*
X141957619Y-73080476D01*
X142052857Y-73032857D01*
X142195714Y-73032857D01*
X142290952Y-73080476D01*
X142338571Y-73128095D01*
X142386190Y-73223333D01*
X142386190Y-73604285D01*
X142862380Y-72080476D02*
X142862380Y-72651904D01*
X142862380Y-72366190D02*
X141862380Y-72366190D01*
X142005238Y-72461428D01*
X142100476Y-72556666D01*
X142148095Y-72651904D01*
X142290952Y-71509047D02*
X142243333Y-71604285D01*
X142195714Y-71651904D01*
X142100476Y-71699523D01*
X142052857Y-71699523D01*
X141957619Y-71651904D01*
X141910000Y-71604285D01*
X141862380Y-71509047D01*
X141862380Y-71318571D01*
X141910000Y-71223333D01*
X141957619Y-71175714D01*
X142052857Y-71128095D01*
X142100476Y-71128095D01*
X142195714Y-71175714D01*
X142243333Y-71223333D01*
X142290952Y-71318571D01*
X142290952Y-71509047D01*
X142338571Y-71604285D01*
X142386190Y-71651904D01*
X142481428Y-71699523D01*
X142671904Y-71699523D01*
X142767142Y-71651904D01*
X142814761Y-71604285D01*
X142862380Y-71509047D01*
X142862380Y-71318571D01*
X142814761Y-71223333D01*
X142767142Y-71175714D01*
X142671904Y-71128095D01*
X142481428Y-71128095D01*
X142386190Y-71175714D01*
X142338571Y-71223333D01*
X142290952Y-71318571D01*
%TO.C,R17*%
X153027142Y-79362380D02*
X152693809Y-78886190D01*
X152455714Y-79362380D02*
X152455714Y-78362380D01*
X152836666Y-78362380D01*
X152931904Y-78410000D01*
X152979523Y-78457619D01*
X153027142Y-78552857D01*
X153027142Y-78695714D01*
X152979523Y-78790952D01*
X152931904Y-78838571D01*
X152836666Y-78886190D01*
X152455714Y-78886190D01*
X153979523Y-79362380D02*
X153408095Y-79362380D01*
X153693809Y-79362380D02*
X153693809Y-78362380D01*
X153598571Y-78505238D01*
X153503333Y-78600476D01*
X153408095Y-78648095D01*
X154312857Y-78362380D02*
X154979523Y-78362380D01*
X154550952Y-79362380D01*
%TO.C,R16*%
X142862380Y-85732857D02*
X142386190Y-86066190D01*
X142862380Y-86304285D02*
X141862380Y-86304285D01*
X141862380Y-85923333D01*
X141910000Y-85828095D01*
X141957619Y-85780476D01*
X142052857Y-85732857D01*
X142195714Y-85732857D01*
X142290952Y-85780476D01*
X142338571Y-85828095D01*
X142386190Y-85923333D01*
X142386190Y-86304285D01*
X142862380Y-84780476D02*
X142862380Y-85351904D01*
X142862380Y-85066190D02*
X141862380Y-85066190D01*
X142005238Y-85161428D01*
X142100476Y-85256666D01*
X142148095Y-85351904D01*
X141862380Y-83923333D02*
X141862380Y-84113809D01*
X141910000Y-84209047D01*
X141957619Y-84256666D01*
X142100476Y-84351904D01*
X142290952Y-84399523D01*
X142671904Y-84399523D01*
X142767142Y-84351904D01*
X142814761Y-84304285D01*
X142862380Y-84209047D01*
X142862380Y-84018571D01*
X142814761Y-83923333D01*
X142767142Y-83875714D01*
X142671904Y-83828095D01*
X142433809Y-83828095D01*
X142338571Y-83875714D01*
X142290952Y-83923333D01*
X142243333Y-84018571D01*
X142243333Y-84209047D01*
X142290952Y-84304285D01*
X142338571Y-84351904D01*
X142433809Y-84399523D01*
%TO.C,R15*%
X163187142Y-58702380D02*
X162853809Y-58226190D01*
X162615714Y-58702380D02*
X162615714Y-57702380D01*
X162996666Y-57702380D01*
X163091904Y-57750000D01*
X163139523Y-57797619D01*
X163187142Y-57892857D01*
X163187142Y-58035714D01*
X163139523Y-58130952D01*
X163091904Y-58178571D01*
X162996666Y-58226190D01*
X162615714Y-58226190D01*
X164139523Y-58702380D02*
X163568095Y-58702380D01*
X163853809Y-58702380D02*
X163853809Y-57702380D01*
X163758571Y-57845238D01*
X163663333Y-57940476D01*
X163568095Y-57988095D01*
X165044285Y-57702380D02*
X164568095Y-57702380D01*
X164520476Y-58178571D01*
X164568095Y-58130952D01*
X164663333Y-58083333D01*
X164901428Y-58083333D01*
X164996666Y-58130952D01*
X165044285Y-58178571D01*
X165091904Y-58273809D01*
X165091904Y-58511904D01*
X165044285Y-58607142D01*
X164996666Y-58654761D01*
X164901428Y-58702380D01*
X164663333Y-58702380D01*
X164568095Y-58654761D01*
X164520476Y-58607142D01*
%TO.C,R14*%
X153027142Y-65052380D02*
X152693809Y-64576190D01*
X152455714Y-65052380D02*
X152455714Y-64052380D01*
X152836666Y-64052380D01*
X152931904Y-64100000D01*
X152979523Y-64147619D01*
X153027142Y-64242857D01*
X153027142Y-64385714D01*
X152979523Y-64480952D01*
X152931904Y-64528571D01*
X152836666Y-64576190D01*
X152455714Y-64576190D01*
X153979523Y-65052380D02*
X153408095Y-65052380D01*
X153693809Y-65052380D02*
X153693809Y-64052380D01*
X153598571Y-64195238D01*
X153503333Y-64290476D01*
X153408095Y-64338095D01*
X154836666Y-64385714D02*
X154836666Y-65052380D01*
X154598571Y-64004761D02*
X154360476Y-64719047D01*
X154979523Y-64719047D01*
%TO.C,R13*%
X163187142Y-71402380D02*
X162853809Y-70926190D01*
X162615714Y-71402380D02*
X162615714Y-70402380D01*
X162996666Y-70402380D01*
X163091904Y-70450000D01*
X163139523Y-70497619D01*
X163187142Y-70592857D01*
X163187142Y-70735714D01*
X163139523Y-70830952D01*
X163091904Y-70878571D01*
X162996666Y-70926190D01*
X162615714Y-70926190D01*
X164139523Y-71402380D02*
X163568095Y-71402380D01*
X163853809Y-71402380D02*
X163853809Y-70402380D01*
X163758571Y-70545238D01*
X163663333Y-70640476D01*
X163568095Y-70688095D01*
X164472857Y-70402380D02*
X165091904Y-70402380D01*
X164758571Y-70783333D01*
X164901428Y-70783333D01*
X164996666Y-70830952D01*
X165044285Y-70878571D01*
X165091904Y-70973809D01*
X165091904Y-71211904D01*
X165044285Y-71307142D01*
X164996666Y-71354761D01*
X164901428Y-71402380D01*
X164615714Y-71402380D01*
X164520476Y-71354761D01*
X164472857Y-71307142D01*
%TO.C,R12*%
X153027142Y-77752380D02*
X152693809Y-77276190D01*
X152455714Y-77752380D02*
X152455714Y-76752380D01*
X152836666Y-76752380D01*
X152931904Y-76800000D01*
X152979523Y-76847619D01*
X153027142Y-76942857D01*
X153027142Y-77085714D01*
X152979523Y-77180952D01*
X152931904Y-77228571D01*
X152836666Y-77276190D01*
X152455714Y-77276190D01*
X153979523Y-77752380D02*
X153408095Y-77752380D01*
X153693809Y-77752380D02*
X153693809Y-76752380D01*
X153598571Y-76895238D01*
X153503333Y-76990476D01*
X153408095Y-77038095D01*
X154360476Y-76847619D02*
X154408095Y-76800000D01*
X154503333Y-76752380D01*
X154741428Y-76752380D01*
X154836666Y-76800000D01*
X154884285Y-76847619D01*
X154931904Y-76942857D01*
X154931904Y-77038095D01*
X154884285Y-77180952D01*
X154312857Y-77752380D01*
X154931904Y-77752380D01*
%TO.C,R11*%
X163187142Y-84102380D02*
X162853809Y-83626190D01*
X162615714Y-84102380D02*
X162615714Y-83102380D01*
X162996666Y-83102380D01*
X163091904Y-83150000D01*
X163139523Y-83197619D01*
X163187142Y-83292857D01*
X163187142Y-83435714D01*
X163139523Y-83530952D01*
X163091904Y-83578571D01*
X162996666Y-83626190D01*
X162615714Y-83626190D01*
X164139523Y-84102380D02*
X163568095Y-84102380D01*
X163853809Y-84102380D02*
X163853809Y-83102380D01*
X163758571Y-83245238D01*
X163663333Y-83340476D01*
X163568095Y-83388095D01*
X165091904Y-84102380D02*
X164520476Y-84102380D01*
X164806190Y-84102380D02*
X164806190Y-83102380D01*
X164710952Y-83245238D01*
X164615714Y-83340476D01*
X164520476Y-83388095D01*
%TO.C,R10*%
X153027142Y-90452380D02*
X152693809Y-89976190D01*
X152455714Y-90452380D02*
X152455714Y-89452380D01*
X152836666Y-89452380D01*
X152931904Y-89500000D01*
X152979523Y-89547619D01*
X153027142Y-89642857D01*
X153027142Y-89785714D01*
X152979523Y-89880952D01*
X152931904Y-89928571D01*
X152836666Y-89976190D01*
X152455714Y-89976190D01*
X153979523Y-90452380D02*
X153408095Y-90452380D01*
X153693809Y-90452380D02*
X153693809Y-89452380D01*
X153598571Y-89595238D01*
X153503333Y-89690476D01*
X153408095Y-89738095D01*
X154598571Y-89452380D02*
X154693809Y-89452380D01*
X154789047Y-89500000D01*
X154836666Y-89547619D01*
X154884285Y-89642857D01*
X154931904Y-89833333D01*
X154931904Y-90071428D01*
X154884285Y-90261904D01*
X154836666Y-90357142D01*
X154789047Y-90404761D01*
X154693809Y-90452380D01*
X154598571Y-90452380D01*
X154503333Y-90404761D01*
X154455714Y-90357142D01*
X154408095Y-90261904D01*
X154360476Y-90071428D01*
X154360476Y-89833333D01*
X154408095Y-89642857D01*
X154455714Y-89547619D01*
X154503333Y-89500000D01*
X154598571Y-89452380D01*
%TO.C,R9*%
X163663333Y-65052380D02*
X163330000Y-64576190D01*
X163091904Y-65052380D02*
X163091904Y-64052380D01*
X163472857Y-64052380D01*
X163568095Y-64100000D01*
X163615714Y-64147619D01*
X163663333Y-64242857D01*
X163663333Y-64385714D01*
X163615714Y-64480952D01*
X163568095Y-64528571D01*
X163472857Y-64576190D01*
X163091904Y-64576190D01*
X164139523Y-65052380D02*
X164330000Y-65052380D01*
X164425238Y-65004761D01*
X164472857Y-64957142D01*
X164568095Y-64814285D01*
X164615714Y-64623809D01*
X164615714Y-64242857D01*
X164568095Y-64147619D01*
X164520476Y-64100000D01*
X164425238Y-64052380D01*
X164234761Y-64052380D01*
X164139523Y-64100000D01*
X164091904Y-64147619D01*
X164044285Y-64242857D01*
X164044285Y-64480952D01*
X164091904Y-64576190D01*
X164139523Y-64623809D01*
X164234761Y-64671428D01*
X164425238Y-64671428D01*
X164520476Y-64623809D01*
X164568095Y-64576190D01*
X164615714Y-64480952D01*
%TO.C,R8*%
X163663333Y-77752380D02*
X163330000Y-77276190D01*
X163091904Y-77752380D02*
X163091904Y-76752380D01*
X163472857Y-76752380D01*
X163568095Y-76800000D01*
X163615714Y-76847619D01*
X163663333Y-76942857D01*
X163663333Y-77085714D01*
X163615714Y-77180952D01*
X163568095Y-77228571D01*
X163472857Y-77276190D01*
X163091904Y-77276190D01*
X164234761Y-77180952D02*
X164139523Y-77133333D01*
X164091904Y-77085714D01*
X164044285Y-76990476D01*
X164044285Y-76942857D01*
X164091904Y-76847619D01*
X164139523Y-76800000D01*
X164234761Y-76752380D01*
X164425238Y-76752380D01*
X164520476Y-76800000D01*
X164568095Y-76847619D01*
X164615714Y-76942857D01*
X164615714Y-76990476D01*
X164568095Y-77085714D01*
X164520476Y-77133333D01*
X164425238Y-77180952D01*
X164234761Y-77180952D01*
X164139523Y-77228571D01*
X164091904Y-77276190D01*
X164044285Y-77371428D01*
X164044285Y-77561904D01*
X164091904Y-77657142D01*
X164139523Y-77704761D01*
X164234761Y-77752380D01*
X164425238Y-77752380D01*
X164520476Y-77704761D01*
X164568095Y-77657142D01*
X164615714Y-77561904D01*
X164615714Y-77371428D01*
X164568095Y-77276190D01*
X164520476Y-77228571D01*
X164425238Y-77180952D01*
%TO.C,R7*%
X163663333Y-90452380D02*
X163330000Y-89976190D01*
X163091904Y-90452380D02*
X163091904Y-89452380D01*
X163472857Y-89452380D01*
X163568095Y-89500000D01*
X163615714Y-89547619D01*
X163663333Y-89642857D01*
X163663333Y-89785714D01*
X163615714Y-89880952D01*
X163568095Y-89928571D01*
X163472857Y-89976190D01*
X163091904Y-89976190D01*
X163996666Y-89452380D02*
X164663333Y-89452380D01*
X164234761Y-90452380D01*
%TO.C,R6*%
X173823333Y-58702380D02*
X173490000Y-58226190D01*
X173251904Y-58702380D02*
X173251904Y-57702380D01*
X173632857Y-57702380D01*
X173728095Y-57750000D01*
X173775714Y-57797619D01*
X173823333Y-57892857D01*
X173823333Y-58035714D01*
X173775714Y-58130952D01*
X173728095Y-58178571D01*
X173632857Y-58226190D01*
X173251904Y-58226190D01*
X174680476Y-57702380D02*
X174490000Y-57702380D01*
X174394761Y-57750000D01*
X174347142Y-57797619D01*
X174251904Y-57940476D01*
X174204285Y-58130952D01*
X174204285Y-58511904D01*
X174251904Y-58607142D01*
X174299523Y-58654761D01*
X174394761Y-58702380D01*
X174585238Y-58702380D01*
X174680476Y-58654761D01*
X174728095Y-58607142D01*
X174775714Y-58511904D01*
X174775714Y-58273809D01*
X174728095Y-58178571D01*
X174680476Y-58130952D01*
X174585238Y-58083333D01*
X174394761Y-58083333D01*
X174299523Y-58130952D01*
X174251904Y-58178571D01*
X174204285Y-58273809D01*
%TO.C,R5*%
X173823333Y-65052380D02*
X173490000Y-64576190D01*
X173251904Y-65052380D02*
X173251904Y-64052380D01*
X173632857Y-64052380D01*
X173728095Y-64100000D01*
X173775714Y-64147619D01*
X173823333Y-64242857D01*
X173823333Y-64385714D01*
X173775714Y-64480952D01*
X173728095Y-64528571D01*
X173632857Y-64576190D01*
X173251904Y-64576190D01*
X174728095Y-64052380D02*
X174251904Y-64052380D01*
X174204285Y-64528571D01*
X174251904Y-64480952D01*
X174347142Y-64433333D01*
X174585238Y-64433333D01*
X174680476Y-64480952D01*
X174728095Y-64528571D01*
X174775714Y-64623809D01*
X174775714Y-64861904D01*
X174728095Y-64957142D01*
X174680476Y-65004761D01*
X174585238Y-65052380D01*
X174347142Y-65052380D01*
X174251904Y-65004761D01*
X174204285Y-64957142D01*
%TO.C,R4*%
X173823333Y-71402380D02*
X173490000Y-70926190D01*
X173251904Y-71402380D02*
X173251904Y-70402380D01*
X173632857Y-70402380D01*
X173728095Y-70450000D01*
X173775714Y-70497619D01*
X173823333Y-70592857D01*
X173823333Y-70735714D01*
X173775714Y-70830952D01*
X173728095Y-70878571D01*
X173632857Y-70926190D01*
X173251904Y-70926190D01*
X174680476Y-70735714D02*
X174680476Y-71402380D01*
X174442380Y-70354761D02*
X174204285Y-71069047D01*
X174823333Y-71069047D01*
%TO.C,R3*%
X173823333Y-77752380D02*
X173490000Y-77276190D01*
X173251904Y-77752380D02*
X173251904Y-76752380D01*
X173632857Y-76752380D01*
X173728095Y-76800000D01*
X173775714Y-76847619D01*
X173823333Y-76942857D01*
X173823333Y-77085714D01*
X173775714Y-77180952D01*
X173728095Y-77228571D01*
X173632857Y-77276190D01*
X173251904Y-77276190D01*
X174156666Y-76752380D02*
X174775714Y-76752380D01*
X174442380Y-77133333D01*
X174585238Y-77133333D01*
X174680476Y-77180952D01*
X174728095Y-77228571D01*
X174775714Y-77323809D01*
X174775714Y-77561904D01*
X174728095Y-77657142D01*
X174680476Y-77704761D01*
X174585238Y-77752380D01*
X174299523Y-77752380D01*
X174204285Y-77704761D01*
X174156666Y-77657142D01*
%TO.C,R2*%
X173823333Y-84102380D02*
X173490000Y-83626190D01*
X173251904Y-84102380D02*
X173251904Y-83102380D01*
X173632857Y-83102380D01*
X173728095Y-83150000D01*
X173775714Y-83197619D01*
X173823333Y-83292857D01*
X173823333Y-83435714D01*
X173775714Y-83530952D01*
X173728095Y-83578571D01*
X173632857Y-83626190D01*
X173251904Y-83626190D01*
X174204285Y-83197619D02*
X174251904Y-83150000D01*
X174347142Y-83102380D01*
X174585238Y-83102380D01*
X174680476Y-83150000D01*
X174728095Y-83197619D01*
X174775714Y-83292857D01*
X174775714Y-83388095D01*
X174728095Y-83530952D01*
X174156666Y-84102380D01*
X174775714Y-84102380D01*
%TO.C,R1*%
X173823333Y-90452380D02*
X173490000Y-89976190D01*
X173251904Y-90452380D02*
X173251904Y-89452380D01*
X173632857Y-89452380D01*
X173728095Y-89500000D01*
X173775714Y-89547619D01*
X173823333Y-89642857D01*
X173823333Y-89785714D01*
X173775714Y-89880952D01*
X173728095Y-89928571D01*
X173632857Y-89976190D01*
X173251904Y-89976190D01*
X174775714Y-90452380D02*
X174204285Y-90452380D01*
X174490000Y-90452380D02*
X174490000Y-89452380D01*
X174394761Y-89595238D01*
X174299523Y-89690476D01*
X174204285Y-89738095D01*
%TO.C,J1*%
X182546666Y-57642380D02*
X182546666Y-58356666D01*
X182499047Y-58499523D01*
X182403809Y-58594761D01*
X182260952Y-58642380D01*
X182165714Y-58642380D01*
X183546666Y-58642380D02*
X182975238Y-58642380D01*
X183260952Y-58642380D02*
X183260952Y-57642380D01*
X183165714Y-57785238D01*
X183070476Y-57880476D01*
X182975238Y-57928095D01*
%TD*%
M02*
